<?xml version="1.0" encoding="utf-8" standalone="no"?>
<!DOCTYPE svg PUBLIC "-//W3C//DTD SVG 1.1//EN"
  "http://www.w3.org/Graphics/SVG/1.1/DTD/svg11.dtd">
<!-- Created with matplotlib (https://matplotlib.org/) -->
<svg height="395.066838pt" version="1.1" viewBox="0 0 449.662812 395.066838" width="449.662812pt" xmlns="http://www.w3.org/2000/svg" xmlns:xlink="http://www.w3.org/1999/xlink">
 <metadata>
  <rdf:RDF xmlns:cc="http://creativecommons.org/ns#" xmlns:dc="http://purl.org/dc/elements/1.1/" xmlns:rdf="http://www.w3.org/1999/02/22-rdf-syntax-ns#">
   <cc:Work>
    <dc:type rdf:resource="http://purl.org/dc/dcmitype/StillImage"/>
    <dc:date>2020-08-05T18:20:15.172543</dc:date>
    <dc:format>image/svg+xml</dc:format>
    <dc:creator>
     <cc:Agent>
      <dc:title>Matplotlib v3.3.0, https://matplotlib.org/</dc:title>
     </cc:Agent>
    </dc:creator>
   </cc:Work>
  </rdf:RDF>
 </metadata>
 <defs>
  <style type="text/css">*{stroke-linecap:butt;stroke-linejoin:round;}</style>
 </defs>
 <g id="figure_1">
  <g id="patch_1">
   <path d="M 0 395.066838 
L 449.662812 395.066838 
L 449.662812 0 
L 0 0 
z
" style="fill:none;"/>
  </g>
  <g id="axes_1">
   <g id="patch_2">
    <path d="M 399.7425 213.48 
C 399.7425 192.064531 395.524119 170.8573 387.328774 151.071986 
C 379.133429 131.286672 367.120497 113.30805 351.977474 98.165026 
C 336.83445 83.022003 318.855828 71.009071 299.070514 62.813726 
C 279.2852 54.618381 258.077969 50.4 236.6625 50.4 
C 215.247031 50.4 194.0398 54.618381 174.254486 62.813726 
C 154.469172 71.009071 136.49055 83.022003 121.347526 98.165026 
C 106.204503 113.30805 94.191571 131.286672 85.996226 151.071986 
C 77.800881 170.8573 73.5825 192.064531 73.5825 213.48 
C 73.5825 234.895469 77.800881 256.1027 85.996226 275.888014 
C 94.191571 295.673328 106.204503 313.65195 121.347526 328.794974 
C 136.49055 343.937997 154.469172 355.950929 174.254486 364.146274 
C 194.0398 372.341619 215.247031 376.56 236.6625 376.56 
C 258.077969 376.56 279.2852 372.341619 299.070514 364.146274 
C 318.855828 355.950929 336.83445 343.937997 351.977474 328.794974 
C 367.120497 313.65195 379.133429 295.673328 387.328774 275.888014 
C 395.524119 256.1027 399.7425 234.895469 399.7425 213.48 
M 236.6625 213.48 
C 236.6625 213.48 236.6625 213.48 236.6625 213.48 
C 236.6625 213.48 236.6625 213.48 236.6625 213.48 
C 236.6625 213.48 236.6625 213.48 236.6625 213.48 
C 236.6625 213.48 236.6625 213.48 236.6625 213.48 
C 236.6625 213.48 236.6625 213.48 236.6625 213.48 
C 236.6625 213.48 236.6625 213.48 236.6625 213.48 
C 236.6625 213.48 236.6625 213.48 236.6625 213.48 
C 236.6625 213.48 236.6625 213.48 236.6625 213.48 
C 236.6625 213.48 236.6625 213.48 236.6625 213.48 
C 236.6625 213.48 236.6625 213.48 236.6625 213.48 
C 236.6625 213.48 236.6625 213.48 236.6625 213.48 
C 236.6625 213.48 236.6625 213.48 236.6625 213.48 
C 236.6625 213.48 236.6625 213.48 236.6625 213.48 
C 236.6625 213.48 236.6625 213.48 236.6625 213.48 
C 236.6625 213.48 236.6625 213.48 236.6625 213.48 
C 236.6625 213.48 236.6625 213.48 236.6625 213.48 
M 399.7425 213.48 
z
" style="fill:#ffffff;"/>
   </g>
   <g id="patch_3">
    <path clip-path="url(#p82b41e6a97)" d="M 399.737743 213.48 
L 276.255972 91.623823 
L 224.33169 204.521142 
L 223.643321 222.938987 
L 241.856396 229.465167 
z
" style="fill:#808080;opacity:0.1;"/>
   </g>
   <g id="patch_4">
    <path clip-path="url(#p82b41e6a97)" d="M 399.72957 213.48 
L 266.421718 121.890544 
L 221.241266 202.275818 
L 224.825988 222.079729 
L 243.922155 235.82292 
z
" style="fill:#808080;opacity:0.1;"/>
   </g>
   <g id="patch_5">
    <path clip-path="url(#p82b41e6a97)" d="M 399.706936 213.48 
L 248.500071 177.047703 
L 229.646706 208.382727 
L 233.851019 215.52266 
L 262.017757 291.515457 
z
" style="fill:#808080;opacity:0.1;"/>
   </g>
   <g id="patch_6">
    <path clip-path="url(#p82b41e6a97)" d="M 399.717885 213.48 
L 266.503384 121.639201 
L 233.255472 211.004649 
L 236.160653 213.844614 
L 242.109831 230.245161 
z
" style="fill:#808080;opacity:0.1;"/>
   </g>
   <g id="patch_7">
    <path clip-path="url(#p82b41e6a97)" d="M 399.729744 213.48 
L 259.598246 142.891033 
L 197.404979 184.957741 
L 216.278688 228.289706 
L 259.547649 283.913246 
z
" style="fill:#808080;opacity:0.1;"/>
   </g>
   <g id="matplotlib.axis_1">
    <g id="xtick_1">
     <g id="line2d_1">
      <path clip-path="url(#p82b41e6a97)" d="M 236.6625 213.48 
L 399.7425 213.48 
" style="fill:none;stroke:#b0b0b0;stroke-linecap:square;stroke-width:0.8;"/>
     </g>
     <g id="text_1">
      <!-- openness -->
      <g style="fill:#808080;" transform="translate(385.022187 216.79125)scale(0.12 -0.12)">
       <defs>
        <path d="M 30.609375 48.390625 
Q 23.390625 48.390625 19.1875 42.75 
Q 14.984375 37.109375 14.984375 27.296875 
Q 14.984375 17.484375 19.15625 11.84375 
Q 23.34375 6.203125 30.609375 6.203125 
Q 37.796875 6.203125 41.984375 11.859375 
Q 46.1875 17.53125 46.1875 27.296875 
Q 46.1875 37.015625 41.984375 42.703125 
Q 37.796875 48.390625 30.609375 48.390625 
z
M 30.609375 56 
Q 42.328125 56 49.015625 48.375 
Q 55.71875 40.765625 55.71875 27.296875 
Q 55.71875 13.875 49.015625 6.21875 
Q 42.328125 -1.421875 30.609375 -1.421875 
Q 18.84375 -1.421875 12.171875 6.21875 
Q 5.515625 13.875 5.515625 27.296875 
Q 5.515625 40.765625 12.171875 48.375 
Q 18.84375 56 30.609375 56 
z
" id="DejaVuSans-111"/>
        <path d="M 18.109375 8.203125 
L 18.109375 -20.796875 
L 9.078125 -20.796875 
L 9.078125 54.6875 
L 18.109375 54.6875 
L 18.109375 46.390625 
Q 20.953125 51.265625 25.265625 53.625 
Q 29.59375 56 35.59375 56 
Q 45.5625 56 51.78125 48.09375 
Q 58.015625 40.1875 58.015625 27.296875 
Q 58.015625 14.40625 51.78125 6.484375 
Q 45.5625 -1.421875 35.59375 -1.421875 
Q 29.59375 -1.421875 25.265625 0.953125 
Q 20.953125 3.328125 18.109375 8.203125 
z
M 48.6875 27.296875 
Q 48.6875 37.203125 44.609375 42.84375 
Q 40.53125 48.484375 33.40625 48.484375 
Q 26.265625 48.484375 22.1875 42.84375 
Q 18.109375 37.203125 18.109375 27.296875 
Q 18.109375 17.390625 22.1875 11.75 
Q 26.265625 6.109375 33.40625 6.109375 
Q 40.53125 6.109375 44.609375 11.75 
Q 48.6875 17.390625 48.6875 27.296875 
z
" id="DejaVuSans-112"/>
        <path d="M 56.203125 29.59375 
L 56.203125 25.203125 
L 14.890625 25.203125 
Q 15.484375 15.921875 20.484375 11.0625 
Q 25.484375 6.203125 34.421875 6.203125 
Q 39.59375 6.203125 44.453125 7.46875 
Q 49.3125 8.734375 54.109375 11.28125 
L 54.109375 2.78125 
Q 49.265625 0.734375 44.1875 -0.34375 
Q 39.109375 -1.421875 33.890625 -1.421875 
Q 20.796875 -1.421875 13.15625 6.1875 
Q 5.515625 13.8125 5.515625 26.8125 
Q 5.515625 40.234375 12.765625 48.109375 
Q 20.015625 56 32.328125 56 
Q 43.359375 56 49.78125 48.890625 
Q 56.203125 41.796875 56.203125 29.59375 
z
M 47.21875 32.234375 
Q 47.125 39.59375 43.09375 43.984375 
Q 39.0625 48.390625 32.421875 48.390625 
Q 24.90625 48.390625 20.390625 44.140625 
Q 15.875 39.890625 15.1875 32.171875 
z
" id="DejaVuSans-101"/>
        <path d="M 54.890625 33.015625 
L 54.890625 0 
L 45.90625 0 
L 45.90625 32.71875 
Q 45.90625 40.484375 42.875 44.328125 
Q 39.84375 48.1875 33.796875 48.1875 
Q 26.515625 48.1875 22.3125 43.546875 
Q 18.109375 38.921875 18.109375 30.90625 
L 18.109375 0 
L 9.078125 0 
L 9.078125 54.6875 
L 18.109375 54.6875 
L 18.109375 46.1875 
Q 21.34375 51.125 25.703125 53.5625 
Q 30.078125 56 35.796875 56 
Q 45.21875 56 50.046875 50.171875 
Q 54.890625 44.34375 54.890625 33.015625 
z
" id="DejaVuSans-110"/>
        <path d="M 44.28125 53.078125 
L 44.28125 44.578125 
Q 40.484375 46.53125 36.375 47.5 
Q 32.28125 48.484375 27.875 48.484375 
Q 21.1875 48.484375 17.84375 46.4375 
Q 14.5 44.390625 14.5 40.28125 
Q 14.5 37.15625 16.890625 35.375 
Q 19.28125 33.59375 26.515625 31.984375 
L 29.59375 31.296875 
Q 39.15625 29.25 43.1875 25.515625 
Q 47.21875 21.78125 47.21875 15.09375 
Q 47.21875 7.46875 41.1875 3.015625 
Q 35.15625 -1.421875 24.609375 -1.421875 
Q 20.21875 -1.421875 15.453125 -0.5625 
Q 10.6875 0.296875 5.421875 2 
L 5.421875 11.28125 
Q 10.40625 8.6875 15.234375 7.390625 
Q 20.0625 6.109375 24.8125 6.109375 
Q 31.15625 6.109375 34.5625 8.28125 
Q 37.984375 10.453125 37.984375 14.40625 
Q 37.984375 18.0625 35.515625 20.015625 
Q 33.0625 21.96875 24.703125 23.78125 
L 21.578125 24.515625 
Q 13.234375 26.265625 9.515625 29.90625 
Q 5.8125 33.546875 5.8125 39.890625 
Q 5.8125 47.609375 11.28125 51.796875 
Q 16.75 56 26.8125 56 
Q 31.78125 56 36.171875 55.265625 
Q 40.578125 54.546875 44.28125 53.078125 
z
" id="DejaVuSans-115"/>
       </defs>
       <use xlink:href="#DejaVuSans-111"/>
       <use x="61.181641" xlink:href="#DejaVuSans-112"/>
       <use x="124.658203" xlink:href="#DejaVuSans-101"/>
       <use x="186.181641" xlink:href="#DejaVuSans-110"/>
       <use x="249.560547" xlink:href="#DejaVuSans-110"/>
       <use x="312.939453" xlink:href="#DejaVuSans-101"/>
       <use x="374.462891" xlink:href="#DejaVuSans-115"/>
       <use x="426.5625" xlink:href="#DejaVuSans-115"/>
      </g>
     </g>
    </g>
    <g id="xtick_2">
     <g id="line2d_2">
      <path clip-path="url(#p82b41e6a97)" d="M 236.6625 213.48 
L 287.056991 58.381703 
" style="fill:none;stroke:#b0b0b0;stroke-linecap:square;stroke-width:0.8;"/>
     </g>
     <g id="text_2">
      <!-- conscientiousness -->
      <g style="fill:#808080;" transform="translate(236.660417 48.378162)scale(0.12 -0.12)">
       <defs>
        <path d="M 48.78125 52.59375 
L 48.78125 44.1875 
Q 44.96875 46.296875 41.140625 47.34375 
Q 37.3125 48.390625 33.40625 48.390625 
Q 24.65625 48.390625 19.8125 42.84375 
Q 14.984375 37.3125 14.984375 27.296875 
Q 14.984375 17.28125 19.8125 11.734375 
Q 24.65625 6.203125 33.40625 6.203125 
Q 37.3125 6.203125 41.140625 7.25 
Q 44.96875 8.296875 48.78125 10.40625 
L 48.78125 2.09375 
Q 45.015625 0.34375 40.984375 -0.53125 
Q 36.96875 -1.421875 32.421875 -1.421875 
Q 20.0625 -1.421875 12.78125 6.34375 
Q 5.515625 14.109375 5.515625 27.296875 
Q 5.515625 40.671875 12.859375 48.328125 
Q 20.21875 56 33.015625 56 
Q 37.15625 56 41.109375 55.140625 
Q 45.0625 54.296875 48.78125 52.59375 
z
" id="DejaVuSans-99"/>
        <path d="M 9.421875 54.6875 
L 18.40625 54.6875 
L 18.40625 0 
L 9.421875 0 
z
M 9.421875 75.984375 
L 18.40625 75.984375 
L 18.40625 64.59375 
L 9.421875 64.59375 
z
" id="DejaVuSans-105"/>
        <path d="M 18.3125 70.21875 
L 18.3125 54.6875 
L 36.8125 54.6875 
L 36.8125 47.703125 
L 18.3125 47.703125 
L 18.3125 18.015625 
Q 18.3125 11.328125 20.140625 9.421875 
Q 21.96875 7.515625 27.59375 7.515625 
L 36.8125 7.515625 
L 36.8125 0 
L 27.59375 0 
Q 17.1875 0 13.234375 3.875 
Q 9.28125 7.765625 9.28125 18.015625 
L 9.28125 47.703125 
L 2.6875 47.703125 
L 2.6875 54.6875 
L 9.28125 54.6875 
L 9.28125 70.21875 
z
" id="DejaVuSans-116"/>
        <path d="M 8.5 21.578125 
L 8.5 54.6875 
L 17.484375 54.6875 
L 17.484375 21.921875 
Q 17.484375 14.15625 20.5 10.265625 
Q 23.53125 6.390625 29.59375 6.390625 
Q 36.859375 6.390625 41.078125 11.03125 
Q 45.3125 15.671875 45.3125 23.6875 
L 45.3125 54.6875 
L 54.296875 54.6875 
L 54.296875 0 
L 45.3125 0 
L 45.3125 8.40625 
Q 42.046875 3.421875 37.71875 1 
Q 33.40625 -1.421875 27.6875 -1.421875 
Q 18.265625 -1.421875 13.375 4.4375 
Q 8.5 10.296875 8.5 21.578125 
z
M 31.109375 56 
z
" id="DejaVuSans-117"/>
       </defs>
       <use xlink:href="#DejaVuSans-99"/>
       <use x="54.980469" xlink:href="#DejaVuSans-111"/>
       <use x="116.162109" xlink:href="#DejaVuSans-110"/>
       <use x="179.541016" xlink:href="#DejaVuSans-115"/>
       <use x="231.640625" xlink:href="#DejaVuSans-99"/>
       <use x="286.621094" xlink:href="#DejaVuSans-105"/>
       <use x="314.404297" xlink:href="#DejaVuSans-101"/>
       <use x="375.927734" xlink:href="#DejaVuSans-110"/>
       <use x="439.306641" xlink:href="#DejaVuSans-116"/>
       <use x="478.515625" xlink:href="#DejaVuSans-105"/>
       <use x="506.298828" xlink:href="#DejaVuSans-111"/>
       <use x="567.480469" xlink:href="#DejaVuSans-117"/>
       <use x="630.859375" xlink:href="#DejaVuSans-115"/>
       <use x="682.958984" xlink:href="#DejaVuSans-110"/>
       <use x="746.337891" xlink:href="#DejaVuSans-101"/>
       <use x="807.861328" xlink:href="#DejaVuSans-115"/>
       <use x="859.960938" xlink:href="#DejaVuSans-115"/>
      </g>
     </g>
    </g>
    <g id="xtick_3">
     <g id="line2d_3">
      <path clip-path="url(#p82b41e6a97)" d="M 236.6625 213.48 
L 104.728009 117.623981 
" style="fill:none;stroke:#b0b0b0;stroke-linecap:square;stroke-width:0.8;"/>
     </g>
     <g id="text_3">
      <!-- extraversion -->
      <g style="fill:#808080;" transform="translate(55.792083 112.706238)scale(0.12 -0.12)">
       <defs>
        <path d="M 54.890625 54.6875 
L 35.109375 28.078125 
L 55.90625 0 
L 45.3125 0 
L 29.390625 21.484375 
L 13.484375 0 
L 2.875 0 
L 24.125 28.609375 
L 4.6875 54.6875 
L 15.28125 54.6875 
L 29.78125 35.203125 
L 44.28125 54.6875 
z
" id="DejaVuSans-120"/>
        <path d="M 41.109375 46.296875 
Q 39.59375 47.171875 37.8125 47.578125 
Q 36.03125 48 33.890625 48 
Q 26.265625 48 22.1875 43.046875 
Q 18.109375 38.09375 18.109375 28.8125 
L 18.109375 0 
L 9.078125 0 
L 9.078125 54.6875 
L 18.109375 54.6875 
L 18.109375 46.1875 
Q 20.953125 51.171875 25.484375 53.578125 
Q 30.03125 56 36.53125 56 
Q 37.453125 56 38.578125 55.875 
Q 39.703125 55.765625 41.0625 55.515625 
z
" id="DejaVuSans-114"/>
        <path d="M 34.28125 27.484375 
Q 23.390625 27.484375 19.1875 25 
Q 14.984375 22.515625 14.984375 16.5 
Q 14.984375 11.71875 18.140625 8.90625 
Q 21.296875 6.109375 26.703125 6.109375 
Q 34.1875 6.109375 38.703125 11.40625 
Q 43.21875 16.703125 43.21875 25.484375 
L 43.21875 27.484375 
z
M 52.203125 31.203125 
L 52.203125 0 
L 43.21875 0 
L 43.21875 8.296875 
Q 40.140625 3.328125 35.546875 0.953125 
Q 30.953125 -1.421875 24.3125 -1.421875 
Q 15.921875 -1.421875 10.953125 3.296875 
Q 6 8.015625 6 15.921875 
Q 6 25.140625 12.171875 29.828125 
Q 18.359375 34.515625 30.609375 34.515625 
L 43.21875 34.515625 
L 43.21875 35.40625 
Q 43.21875 41.609375 39.140625 45 
Q 35.0625 48.390625 27.6875 48.390625 
Q 23 48.390625 18.546875 47.265625 
Q 14.109375 46.140625 10.015625 43.890625 
L 10.015625 52.203125 
Q 14.9375 54.109375 19.578125 55.046875 
Q 24.21875 56 28.609375 56 
Q 40.484375 56 46.34375 49.84375 
Q 52.203125 43.703125 52.203125 31.203125 
z
" id="DejaVuSans-97"/>
        <path d="M 2.984375 54.6875 
L 12.5 54.6875 
L 29.59375 8.796875 
L 46.6875 54.6875 
L 56.203125 54.6875 
L 35.6875 0 
L 23.484375 0 
z
" id="DejaVuSans-118"/>
       </defs>
       <use xlink:href="#DejaVuSans-101"/>
       <use x="59.773438" xlink:href="#DejaVuSans-120"/>
       <use x="118.953125" xlink:href="#DejaVuSans-116"/>
       <use x="158.162109" xlink:href="#DejaVuSans-114"/>
       <use x="199.275391" xlink:href="#DejaVuSans-97"/>
       <use x="260.554688" xlink:href="#DejaVuSans-118"/>
       <use x="319.734375" xlink:href="#DejaVuSans-101"/>
       <use x="381.257812" xlink:href="#DejaVuSans-114"/>
       <use x="422.371094" xlink:href="#DejaVuSans-115"/>
       <use x="474.470703" xlink:href="#DejaVuSans-105"/>
       <use x="502.253906" xlink:href="#DejaVuSans-111"/>
       <use x="563.435547" xlink:href="#DejaVuSans-110"/>
      </g>
     </g>
    </g>
    <g id="xtick_4">
     <g id="line2d_4">
      <path clip-path="url(#p82b41e6a97)" d="M 236.6625 213.48 
L 104.728009 309.336019 
" style="fill:none;stroke:#b0b0b0;stroke-linecap:square;stroke-width:0.8;"/>
     </g>
     <g id="text_4">
      <!-- agreeableness -->
      <g style="fill:#808080;" transform="translate(49.610208 320.876262)scale(0.12 -0.12)">
       <defs>
        <path d="M 45.40625 27.984375 
Q 45.40625 37.75 41.375 43.109375 
Q 37.359375 48.484375 30.078125 48.484375 
Q 22.859375 48.484375 18.828125 43.109375 
Q 14.796875 37.75 14.796875 27.984375 
Q 14.796875 18.265625 18.828125 12.890625 
Q 22.859375 7.515625 30.078125 7.515625 
Q 37.359375 7.515625 41.375 12.890625 
Q 45.40625 18.265625 45.40625 27.984375 
z
M 54.390625 6.78125 
Q 54.390625 -7.171875 48.1875 -13.984375 
Q 42 -20.796875 29.203125 -20.796875 
Q 24.46875 -20.796875 20.265625 -20.09375 
Q 16.0625 -19.390625 12.109375 -17.921875 
L 12.109375 -9.1875 
Q 16.0625 -11.328125 19.921875 -12.34375 
Q 23.78125 -13.375 27.78125 -13.375 
Q 36.625 -13.375 41.015625 -8.765625 
Q 45.40625 -4.15625 45.40625 5.171875 
L 45.40625 9.625 
Q 42.625 4.78125 38.28125 2.390625 
Q 33.9375 0 27.875 0 
Q 17.828125 0 11.671875 7.65625 
Q 5.515625 15.328125 5.515625 27.984375 
Q 5.515625 40.671875 11.671875 48.328125 
Q 17.828125 56 27.875 56 
Q 33.9375 56 38.28125 53.609375 
Q 42.625 51.21875 45.40625 46.390625 
L 45.40625 54.6875 
L 54.390625 54.6875 
z
" id="DejaVuSans-103"/>
        <path d="M 48.6875 27.296875 
Q 48.6875 37.203125 44.609375 42.84375 
Q 40.53125 48.484375 33.40625 48.484375 
Q 26.265625 48.484375 22.1875 42.84375 
Q 18.109375 37.203125 18.109375 27.296875 
Q 18.109375 17.390625 22.1875 11.75 
Q 26.265625 6.109375 33.40625 6.109375 
Q 40.53125 6.109375 44.609375 11.75 
Q 48.6875 17.390625 48.6875 27.296875 
z
M 18.109375 46.390625 
Q 20.953125 51.265625 25.265625 53.625 
Q 29.59375 56 35.59375 56 
Q 45.5625 56 51.78125 48.09375 
Q 58.015625 40.1875 58.015625 27.296875 
Q 58.015625 14.40625 51.78125 6.484375 
Q 45.5625 -1.421875 35.59375 -1.421875 
Q 29.59375 -1.421875 25.265625 0.953125 
Q 20.953125 3.328125 18.109375 8.203125 
L 18.109375 0 
L 9.078125 0 
L 9.078125 75.984375 
L 18.109375 75.984375 
z
" id="DejaVuSans-98"/>
        <path d="M 9.421875 75.984375 
L 18.40625 75.984375 
L 18.40625 0 
L 9.421875 0 
z
" id="DejaVuSans-108"/>
       </defs>
       <use xlink:href="#DejaVuSans-97"/>
       <use x="61.279297" xlink:href="#DejaVuSans-103"/>
       <use x="124.755859" xlink:href="#DejaVuSans-114"/>
       <use x="163.619141" xlink:href="#DejaVuSans-101"/>
       <use x="225.142578" xlink:href="#DejaVuSans-101"/>
       <use x="286.666016" xlink:href="#DejaVuSans-97"/>
       <use x="347.945312" xlink:href="#DejaVuSans-98"/>
       <use x="411.421875" xlink:href="#DejaVuSans-108"/>
       <use x="439.205078" xlink:href="#DejaVuSans-101"/>
       <use x="500.728516" xlink:href="#DejaVuSans-110"/>
       <use x="564.107422" xlink:href="#DejaVuSans-101"/>
       <use x="625.630859" xlink:href="#DejaVuSans-115"/>
       <use x="677.730469" xlink:href="#DejaVuSans-115"/>
      </g>
     </g>
    </g>
    <g id="xtick_5">
     <g id="line2d_5">
      <path clip-path="url(#p82b41e6a97)" d="M 236.6625 213.48 
L 287.056991 368.578297 
" style="fill:none;stroke:#b0b0b0;stroke-linecap:square;stroke-width:0.8;"/>
     </g>
     <g id="text_5">
      <!-- emotional_range -->
      <g style="fill:#808080;" transform="translate(240.892292 385.037463)scale(0.12 -0.12)">
       <defs>
        <path d="M 52 44.1875 
Q 55.375 50.25 60.0625 53.125 
Q 64.75 56 71.09375 56 
Q 79.640625 56 84.28125 50.015625 
Q 88.921875 44.046875 88.921875 33.015625 
L 88.921875 0 
L 79.890625 0 
L 79.890625 32.71875 
Q 79.890625 40.578125 77.09375 44.375 
Q 74.3125 48.1875 68.609375 48.1875 
Q 61.625 48.1875 57.5625 43.546875 
Q 53.515625 38.921875 53.515625 30.90625 
L 53.515625 0 
L 44.484375 0 
L 44.484375 32.71875 
Q 44.484375 40.625 41.703125 44.40625 
Q 38.921875 48.1875 33.109375 48.1875 
Q 26.21875 48.1875 22.15625 43.53125 
Q 18.109375 38.875 18.109375 30.90625 
L 18.109375 0 
L 9.078125 0 
L 9.078125 54.6875 
L 18.109375 54.6875 
L 18.109375 46.1875 
Q 21.1875 51.21875 25.484375 53.609375 
Q 29.78125 56 35.6875 56 
Q 41.65625 56 45.828125 52.96875 
Q 50 49.953125 52 44.1875 
z
" id="DejaVuSans-109"/>
        <path d="M 50.984375 -16.609375 
L 50.984375 -23.578125 
L -0.984375 -23.578125 
L -0.984375 -16.609375 
z
" id="DejaVuSans-95"/>
       </defs>
       <use xlink:href="#DejaVuSans-101"/>
       <use x="61.523438" xlink:href="#DejaVuSans-109"/>
       <use x="158.935547" xlink:href="#DejaVuSans-111"/>
       <use x="220.117188" xlink:href="#DejaVuSans-116"/>
       <use x="259.326172" xlink:href="#DejaVuSans-105"/>
       <use x="287.109375" xlink:href="#DejaVuSans-111"/>
       <use x="348.291016" xlink:href="#DejaVuSans-110"/>
       <use x="411.669922" xlink:href="#DejaVuSans-97"/>
       <use x="472.949219" xlink:href="#DejaVuSans-108"/>
       <use x="500.732422" xlink:href="#DejaVuSans-95"/>
       <use x="550.732422" xlink:href="#DejaVuSans-114"/>
       <use x="591.845703" xlink:href="#DejaVuSans-97"/>
       <use x="653.125" xlink:href="#DejaVuSans-110"/>
       <use x="716.503906" xlink:href="#DejaVuSans-103"/>
       <use x="779.980469" xlink:href="#DejaVuSans-101"/>
      </g>
     </g>
    </g>
   </g>
   <g id="matplotlib.axis_2">
    <g id="ytick_1">
     <g id="line2d_6">
      <path clip-path="url(#p82b41e6a97)" d="M 236.6625 213.48 
C 236.6625 213.48 236.6625 213.48 236.6625 213.48 
C 236.6625 213.48 236.6625 213.48 236.6625 213.48 
C 236.6625 213.48 236.6625 213.48 236.6625 213.48 
C 236.6625 213.48 236.6625 213.48 236.6625 213.48 
C 236.6625 213.48 236.6625 213.48 236.6625 213.48 
C 236.6625 213.48 236.6625 213.48 236.6625 213.48 
C 236.6625 213.48 236.6625 213.48 236.6625 213.48 
C 236.6625 213.48 236.6625 213.48 236.6625 213.48 
C 236.6625 213.48 236.6625 213.48 236.6625 213.48 
C 236.6625 213.48 236.6625 213.48 236.6625 213.48 
C 236.6625 213.48 236.6625 213.48 236.6625 213.48 
C 236.6625 213.48 236.6625 213.48 236.6625 213.48 
C 236.6625 213.48 236.6625 213.48 236.6625 213.48 
C 236.6625 213.48 236.6625 213.48 236.6625 213.48 
C 236.6625 213.48 236.6625 213.48 236.6625 213.48 
C 236.6625 213.48 236.6625 213.48 236.6625 213.48 
" style="fill:none;stroke:#b0b0b0;stroke-linecap:square;stroke-width:0.8;"/>
     </g>
     <g id="text_6">
      <!-- 0 -->
      <g style="fill:#808080;" transform="translate(236.6625 211.400312)scale(0.1 -0.1)">
       <defs>
        <path d="M 31.78125 66.40625 
Q 24.171875 66.40625 20.328125 58.90625 
Q 16.5 51.421875 16.5 36.375 
Q 16.5 21.390625 20.328125 13.890625 
Q 24.171875 6.390625 31.78125 6.390625 
Q 39.453125 6.390625 43.28125 13.890625 
Q 47.125 21.390625 47.125 36.375 
Q 47.125 51.421875 43.28125 58.90625 
Q 39.453125 66.40625 31.78125 66.40625 
z
M 31.78125 74.21875 
Q 44.046875 74.21875 50.515625 64.515625 
Q 56.984375 54.828125 56.984375 36.375 
Q 56.984375 17.96875 50.515625 8.265625 
Q 44.046875 -1.421875 31.78125 -1.421875 
Q 19.53125 -1.421875 13.0625 8.265625 
Q 6.59375 17.96875 6.59375 36.375 
Q 6.59375 54.828125 13.0625 64.515625 
Q 19.53125 74.21875 31.78125 74.21875 
z
" id="DejaVuSans-48"/>
       </defs>
       <use xlink:href="#DejaVuSans-48"/>
      </g>
     </g>
    </g>
    <g id="ytick_2">
     <g id="line2d_7">
      <path clip-path="url(#p82b41e6a97)" d="M 277.4325 213.48 
C 277.4325 208.126133 276.377905 202.824325 274.329069 197.877996 
C 272.280232 192.931668 269.276999 188.437012 265.491243 184.651257 
C 261.705488 180.865501 257.210832 177.862268 252.264504 175.813431 
C 247.318175 173.764595 242.016367 172.71 236.6625 172.71 
C 231.308633 172.71 226.006825 173.764595 221.060496 175.813431 
C 216.114168 177.862268 211.619512 180.865501 207.833757 184.651257 
C 204.048001 188.437012 201.044768 192.931668 198.995931 197.877996 
C 196.947095 202.824325 195.8925 208.126133 195.8925 213.48 
C 195.8925 218.833867 196.947095 224.135675 198.995931 229.082004 
C 201.044768 234.028332 204.048001 238.522988 207.833757 242.308743 
C 211.619512 246.094499 216.114168 249.097732 221.060496 251.146569 
C 226.006825 253.195405 231.308633 254.25 236.6625 254.25 
C 242.016367 254.25 247.318175 253.195405 252.264504 251.146569 
C 257.210832 249.097732 261.705488 246.094499 265.491243 242.308743 
C 269.276999 238.522988 272.280232 234.028332 274.329069 229.082004 
C 276.377905 224.135675 277.4325 218.833867 277.4325 213.48 
" style="fill:none;stroke:#b0b0b0;stroke-linecap:square;stroke-width:0.8;"/>
     </g>
     <g id="text_7">
      <!-- 25 -->
      <g style="fill:#808080;" transform="translate(274.329069 195.798309)scale(0.1 -0.1)">
       <defs>
        <path d="M 19.1875 8.296875 
L 53.609375 8.296875 
L 53.609375 0 
L 7.328125 0 
L 7.328125 8.296875 
Q 12.9375 14.109375 22.625 23.890625 
Q 32.328125 33.6875 34.8125 36.53125 
Q 39.546875 41.84375 41.421875 45.53125 
Q 43.3125 49.21875 43.3125 52.78125 
Q 43.3125 58.59375 39.234375 62.25 
Q 35.15625 65.921875 28.609375 65.921875 
Q 23.96875 65.921875 18.8125 64.3125 
Q 13.671875 62.703125 7.8125 59.421875 
L 7.8125 69.390625 
Q 13.765625 71.78125 18.9375 73 
Q 24.125 74.21875 28.421875 74.21875 
Q 39.75 74.21875 46.484375 68.546875 
Q 53.21875 62.890625 53.21875 53.421875 
Q 53.21875 48.921875 51.53125 44.890625 
Q 49.859375 40.875 45.40625 35.40625 
Q 44.1875 33.984375 37.640625 27.21875 
Q 31.109375 20.453125 19.1875 8.296875 
z
" id="DejaVuSans-50"/>
        <path d="M 10.796875 72.90625 
L 49.515625 72.90625 
L 49.515625 64.59375 
L 19.828125 64.59375 
L 19.828125 46.734375 
Q 21.96875 47.46875 24.109375 47.828125 
Q 26.265625 48.1875 28.421875 48.1875 
Q 40.625 48.1875 47.75 41.5 
Q 54.890625 34.8125 54.890625 23.390625 
Q 54.890625 11.625 47.5625 5.09375 
Q 40.234375 -1.421875 26.90625 -1.421875 
Q 22.3125 -1.421875 17.546875 -0.640625 
Q 12.796875 0.140625 7.71875 1.703125 
L 7.71875 11.625 
Q 12.109375 9.234375 16.796875 8.0625 
Q 21.484375 6.890625 26.703125 6.890625 
Q 35.15625 6.890625 40.078125 11.328125 
Q 45.015625 15.765625 45.015625 23.390625 
Q 45.015625 31 40.078125 35.4375 
Q 35.15625 39.890625 26.703125 39.890625 
Q 22.75 39.890625 18.8125 39.015625 
Q 14.890625 38.140625 10.796875 36.28125 
z
" id="DejaVuSans-53"/>
       </defs>
       <use xlink:href="#DejaVuSans-50"/>
       <use x="63.623047" xlink:href="#DejaVuSans-53"/>
      </g>
     </g>
    </g>
    <g id="ytick_3">
     <g id="line2d_8">
      <path clip-path="url(#p82b41e6a97)" d="M 318.2025 213.48 
C 318.2025 202.772265 316.09331 192.16865 311.995637 182.275993 
C 307.897964 172.383336 301.891499 163.394025 294.319987 155.822513 
C 286.748475 148.251001 277.759164 142.244536 267.866507 138.146863 
C 257.97385 134.04919 247.370235 131.94 236.6625 131.94 
C 225.954765 131.94 215.35115 134.04919 205.458493 138.146863 
C 195.565836 142.244536 186.576525 148.251001 179.005013 155.822513 
C 171.433501 163.394025 165.427036 172.383336 161.329363 182.275993 
C 157.23169 192.16865 155.1225 202.772265 155.1225 213.48 
C 155.1225 224.187735 157.23169 234.79135 161.329363 244.684007 
C 165.427036 254.576664 171.433501 263.565975 179.005013 271.137487 
C 186.576525 278.708999 195.565836 284.715464 205.458493 288.813137 
C 215.35115 292.91081 225.954765 295.02 236.6625 295.02 
C 247.370235 295.02 257.97385 292.91081 267.866507 288.813137 
C 277.759164 284.715464 286.748475 278.708999 294.319987 271.137487 
C 301.891499 263.565975 307.897964 254.576664 311.995637 244.684007 
C 316.09331 234.79135 318.2025 224.187735 318.2025 213.48 
" style="fill:none;stroke:#b0b0b0;stroke-linecap:square;stroke-width:0.8;"/>
     </g>
     <g id="text_8">
      <!-- 50 -->
      <g style="fill:#808080;" transform="translate(311.995637 180.196305)scale(0.1 -0.1)">
       <use xlink:href="#DejaVuSans-53"/>
       <use x="63.623047" xlink:href="#DejaVuSans-48"/>
      </g>
     </g>
    </g>
    <g id="ytick_4">
     <g id="line2d_9">
      <path clip-path="url(#p82b41e6a97)" d="M 358.9725 213.48 
C 358.9725 197.418398 355.808715 181.512975 349.662206 166.673989 
C 343.515697 151.835004 334.505998 138.351037 323.14873 126.99377 
C 311.791463 115.636502 298.307496 106.626803 283.468511 100.480294 
C 268.629525 94.333785 252.724102 91.17 236.6625 91.17 
C 220.600898 91.17 204.695475 94.333785 189.856489 100.480294 
C 175.017504 106.626803 161.533537 115.636502 150.17627 126.99377 
C 138.819002 138.351037 129.809303 151.835004 123.662794 166.673989 
C 117.516285 181.512975 114.3525 197.418398 114.3525 213.48 
C 114.3525 229.541602 117.516285 245.447025 123.662794 260.286011 
C 129.809303 275.124996 138.819002 288.608963 150.17627 299.96623 
C 161.533537 311.323498 175.017504 320.333197 189.856489 326.479706 
C 204.695475 332.626215 220.600898 335.79 236.6625 335.79 
C 252.724102 335.79 268.629525 332.626215 283.468511 326.479706 
C 298.307496 320.333197 311.791463 311.323498 323.14873 299.96623 
C 334.505998 288.608963 343.515697 275.124996 349.662206 260.286011 
C 355.808715 245.447025 358.9725 229.541602 358.9725 213.48 
" style="fill:none;stroke:#b0b0b0;stroke-linecap:square;stroke-width:0.8;"/>
     </g>
     <g id="text_9">
      <!-- 75 -->
      <g style="fill:#808080;" transform="translate(349.662206 164.594302)scale(0.1 -0.1)">
       <defs>
        <path d="M 8.203125 72.90625 
L 55.078125 72.90625 
L 55.078125 68.703125 
L 28.609375 0 
L 18.3125 0 
L 43.21875 64.59375 
L 8.203125 64.59375 
z
" id="DejaVuSans-55"/>
       </defs>
       <use xlink:href="#DejaVuSans-55"/>
       <use x="63.623047" xlink:href="#DejaVuSans-53"/>
      </g>
     </g>
    </g>
    <g id="ytick_5">
     <g id="line2d_10">
      <path clip-path="url(#p82b41e6a97)" d="M 399.7425 213.48 
C 399.7425 192.064531 395.524119 170.8573 387.328774 151.071986 
C 379.133429 131.286672 367.120497 113.30805 351.977474 98.165026 
C 336.83445 83.022003 318.855828 71.009071 299.070514 62.813726 
C 279.2852 54.618381 258.077969 50.4 236.6625 50.4 
C 215.247031 50.4 194.0398 54.618381 174.254486 62.813726 
C 154.469172 71.009071 136.49055 83.022003 121.347526 98.165026 
C 106.204503 113.30805 94.191571 131.286672 85.996226 151.071986 
C 77.800881 170.8573 73.5825 192.064531 73.5825 213.48 
C 73.5825 234.895469 77.800881 256.1027 85.996226 275.888014 
C 94.191571 295.673328 106.204503 313.65195 121.347526 328.794974 
C 136.49055 343.937997 154.469172 355.950929 174.254486 364.146274 
C 194.0398 372.341619 215.247031 376.56 236.6625 376.56 
C 258.077969 376.56 279.2852 372.341619 299.070514 364.146274 
C 318.855828 355.950929 336.83445 343.937997 351.977474 328.794974 
C 367.120497 313.65195 379.133429 295.673328 387.328774 275.888014 
C 395.524119 256.1027 399.7425 234.895469 399.7425 213.48 
" style="fill:none;stroke:#b0b0b0;stroke-linecap:square;stroke-width:0.8;"/>
     </g>
     <g id="text_10">
      <!-- 100 -->
      <g style="fill:#808080;" transform="translate(387.328774 148.992298)scale(0.1 -0.1)">
       <defs>
        <path d="M 12.40625 8.296875 
L 28.515625 8.296875 
L 28.515625 63.921875 
L 10.984375 60.40625 
L 10.984375 69.390625 
L 28.421875 72.90625 
L 38.28125 72.90625 
L 38.28125 8.296875 
L 54.390625 8.296875 
L 54.390625 0 
L 12.40625 0 
z
" id="DejaVuSans-49"/>
       </defs>
       <use xlink:href="#DejaVuSans-49"/>
       <use x="63.623047" xlink:href="#DejaVuSans-48"/>
       <use x="127.246094" xlink:href="#DejaVuSans-48"/>
      </g>
     </g>
    </g>
   </g>
   <g id="line2d_11">
    <path clip-path="url(#p82b41e6a97)" d="M 399.737743 213.48 
L 276.255972 91.623823 
L 224.33169 204.521142 
L 223.643321 222.938987 
L 241.856396 229.465167 
L 399.737743 213.48 
" style="fill:none;stroke:#800080;stroke-linecap:square;"/>
   </g>
   <g id="line2d_12">
    <path clip-path="url(#p82b41e6a97)" d="M 399.72957 213.48 
L 266.421718 121.890544 
L 221.241266 202.275818 
L 224.825988 222.079729 
L 243.922155 235.82292 
L 399.72957 213.48 
" style="fill:none;stroke:#0000ff;stroke-linecap:square;"/>
   </g>
   <g id="line2d_13">
    <path clip-path="url(#p82b41e6a97)" d="M 399.706936 213.48 
L 248.500071 177.047703 
L 229.646706 208.382727 
L 233.851019 215.52266 
L 262.017757 291.515457 
L 399.706936 213.48 
" style="fill:none;stroke:#008000;stroke-linecap:square;"/>
   </g>
   <g id="line2d_14">
    <path clip-path="url(#p82b41e6a97)" d="M 399.717885 213.48 
L 266.503384 121.639201 
L 233.255472 211.004649 
L 236.160653 213.844614 
L 242.109831 230.245161 
L 399.717885 213.48 
" style="fill:none;stroke:#ff0000;stroke-linecap:square;"/>
   </g>
   <g id="line2d_15">
    <path clip-path="url(#p82b41e6a97)" d="M 399.729744 213.48 
L 259.598246 142.891033 
L 197.404979 184.957741 
L 216.278688 228.289706 
L 259.547649 283.913246 
L 399.729744 213.48 
" style="fill:none;stroke:#ffa500;stroke-linecap:square;"/>
   </g>
   <g id="patch_8">
    <path d="M 399.7425 213.48 
C 399.7425 192.064531 395.524119 170.8573 387.328774 151.071986 
C 379.133429 131.286672 367.120497 113.30805 351.977474 98.165026 
C 336.83445 83.022003 318.855828 71.009071 299.070514 62.813726 
C 279.2852 54.618381 258.077969 50.4 236.6625 50.4 
C 215.247031 50.4 194.0398 54.618381 174.254486 62.813726 
C 154.469172 71.009071 136.49055 83.022003 121.347526 98.165026 
C 106.204503 113.30805 94.191571 131.286672 85.996226 151.071986 
C 77.800881 170.8573 73.5825 192.064531 73.5825 213.48 
C 73.5825 234.895469 77.800881 256.1027 85.996226 275.888014 
C 94.191571 295.673328 106.204503 313.65195 121.347526 328.794974 
C 136.49055 343.937997 154.469172 355.950929 174.254486 364.146274 
C 194.0398 372.341619 215.247031 376.56 236.6625 376.56 
C 258.077969 376.56 279.2852 372.341619 299.070514 364.146274 
C 318.855828 355.950929 336.83445 343.937997 351.977474 328.794974 
C 367.120497 313.65195 379.133429 295.673328 387.328774 275.888014 
C 395.524119 256.1027 399.7425 234.895469 399.7425 213.48 
" style="fill:none;stroke:#000000;stroke-linecap:square;stroke-linejoin:miter;stroke-width:0.8;"/>
   </g>
   <g id="legend_1">
    <g id="patch_9">
     <path d="M 313.14875 371.56 
L 392.7425 371.56 
Q 394.7425 371.56 394.7425 369.56 
L 394.7425 297.169375 
Q 394.7425 295.169375 392.7425 295.169375 
L 313.14875 295.169375 
Q 311.14875 295.169375 311.14875 297.169375 
L 311.14875 369.56 
Q 311.14875 371.56 313.14875 371.56 
z
" style="fill:#ffffff;opacity:0.8;stroke:#cccccc;stroke-linejoin:miter;"/>
    </g>
    <g id="line2d_16">
     <path d="M 315.14875 303.267812 
L 335.14875 303.267812 
" style="fill:none;stroke:#800080;stroke-linecap:square;"/>
    </g>
    <g id="line2d_17"/>
    <g id="text_11">
     <!-- aristotle -->
     <g transform="translate(343.14875 306.767812)scale(0.1 -0.1)">
      <use xlink:href="#DejaVuSans-97"/>
      <use x="61.279297" xlink:href="#DejaVuSans-114"/>
      <use x="102.392578" xlink:href="#DejaVuSans-105"/>
      <use x="130.175781" xlink:href="#DejaVuSans-115"/>
      <use x="182.275391" xlink:href="#DejaVuSans-116"/>
      <use x="221.484375" xlink:href="#DejaVuSans-111"/>
      <use x="282.666016" xlink:href="#DejaVuSans-116"/>
      <use x="321.875" xlink:href="#DejaVuSans-108"/>
      <use x="349.658203" xlink:href="#DejaVuSans-101"/>
     </g>
    </g>
    <g id="line2d_18">
     <path d="M 315.14875 317.945937 
L 335.14875 317.945937 
" style="fill:none;stroke:#0000ff;stroke-linecap:square;"/>
    </g>
    <g id="line2d_19"/>
    <g id="text_12">
     <!-- foot -->
     <g transform="translate(343.14875 321.445937)scale(0.1 -0.1)">
      <defs>
       <path d="M 37.109375 75.984375 
L 37.109375 68.5 
L 28.515625 68.5 
Q 23.6875 68.5 21.796875 66.546875 
Q 19.921875 64.59375 19.921875 59.515625 
L 19.921875 54.6875 
L 34.71875 54.6875 
L 34.71875 47.703125 
L 19.921875 47.703125 
L 19.921875 0 
L 10.890625 0 
L 10.890625 47.703125 
L 2.296875 47.703125 
L 2.296875 54.6875 
L 10.890625 54.6875 
L 10.890625 58.5 
Q 10.890625 67.625 15.140625 71.796875 
Q 19.390625 75.984375 28.609375 75.984375 
z
" id="DejaVuSans-102"/>
      </defs>
      <use xlink:href="#DejaVuSans-102"/>
      <use x="35.205078" xlink:href="#DejaVuSans-111"/>
      <use x="96.386719" xlink:href="#DejaVuSans-111"/>
      <use x="157.568359" xlink:href="#DejaVuSans-116"/>
     </g>
    </g>
    <g id="line2d_20">
     <path d="M 315.14875 332.624062 
L 335.14875 332.624062 
" style="fill:none;stroke:#008000;stroke-linecap:square;"/>
    </g>
    <g id="line2d_21"/>
    <g id="text_13">
     <!-- mcdowell -->
     <g transform="translate(343.14875 336.124062)scale(0.1 -0.1)">
      <defs>
       <path d="M 45.40625 46.390625 
L 45.40625 75.984375 
L 54.390625 75.984375 
L 54.390625 0 
L 45.40625 0 
L 45.40625 8.203125 
Q 42.578125 3.328125 38.25 0.953125 
Q 33.9375 -1.421875 27.875 -1.421875 
Q 17.96875 -1.421875 11.734375 6.484375 
Q 5.515625 14.40625 5.515625 27.296875 
Q 5.515625 40.1875 11.734375 48.09375 
Q 17.96875 56 27.875 56 
Q 33.9375 56 38.25 53.625 
Q 42.578125 51.265625 45.40625 46.390625 
z
M 14.796875 27.296875 
Q 14.796875 17.390625 18.875 11.75 
Q 22.953125 6.109375 30.078125 6.109375 
Q 37.203125 6.109375 41.296875 11.75 
Q 45.40625 17.390625 45.40625 27.296875 
Q 45.40625 37.203125 41.296875 42.84375 
Q 37.203125 48.484375 30.078125 48.484375 
Q 22.953125 48.484375 18.875 42.84375 
Q 14.796875 37.203125 14.796875 27.296875 
z
" id="DejaVuSans-100"/>
       <path d="M 4.203125 54.6875 
L 13.1875 54.6875 
L 24.421875 12.015625 
L 35.59375 54.6875 
L 46.1875 54.6875 
L 57.421875 12.015625 
L 68.609375 54.6875 
L 77.59375 54.6875 
L 63.28125 0 
L 52.6875 0 
L 40.921875 44.828125 
L 29.109375 0 
L 18.5 0 
z
" id="DejaVuSans-119"/>
      </defs>
      <use xlink:href="#DejaVuSans-109"/>
      <use x="97.412109" xlink:href="#DejaVuSans-99"/>
      <use x="152.392578" xlink:href="#DejaVuSans-100"/>
      <use x="215.869141" xlink:href="#DejaVuSans-111"/>
      <use x="277.050781" xlink:href="#DejaVuSans-119"/>
      <use x="358.837891" xlink:href="#DejaVuSans-101"/>
      <use x="420.361328" xlink:href="#DejaVuSans-108"/>
      <use x="448.144531" xlink:href="#DejaVuSans-108"/>
     </g>
    </g>
    <g id="line2d_22">
     <path d="M 315.14875 347.302187 
L 335.14875 347.302187 
" style="fill:none;stroke:#ff0000;stroke-linecap:square;"/>
    </g>
    <g id="line2d_23"/>
    <g id="text_14">
     <!-- rand -->
     <g transform="translate(343.14875 350.802187)scale(0.1 -0.1)">
      <use xlink:href="#DejaVuSans-114"/>
      <use x="41.113281" xlink:href="#DejaVuSans-97"/>
      <use x="102.392578" xlink:href="#DejaVuSans-110"/>
      <use x="165.771484" xlink:href="#DejaVuSans-100"/>
     </g>
    </g>
    <g id="line2d_24">
     <path d="M 315.14875 361.980312 
L 335.14875 361.980312 
" style="fill:none;stroke:#ffa500;stroke-linecap:square;"/>
    </g>
    <g id="line2d_25"/>
    <g id="text_15">
     <!-- slote -->
     <g transform="translate(343.14875 365.480312)scale(0.1 -0.1)">
      <use xlink:href="#DejaVuSans-115"/>
      <use x="52.099609" xlink:href="#DejaVuSans-108"/>
      <use x="79.882812" xlink:href="#DejaVuSans-111"/>
      <use x="141.064453" xlink:href="#DejaVuSans-116"/>
      <use x="180.273438" xlink:href="#DejaVuSans-101"/>
     </g>
    </g>
   </g>
  </g>
  <g id="text_16">
   <!-- Stacked Virtue Ethicists Percentile Scores -->
   <g transform="translate(7.2 22.396875)scale(0.2 -0.2)">
    <defs>
     <path d="M 53.515625 70.515625 
L 53.515625 60.890625 
Q 47.90625 63.578125 42.921875 64.890625 
Q 37.9375 66.21875 33.296875 66.21875 
Q 25.25 66.21875 20.875 63.09375 
Q 16.5 59.96875 16.5 54.203125 
Q 16.5 49.359375 19.40625 46.890625 
Q 22.3125 44.4375 30.421875 42.921875 
L 36.375 41.703125 
Q 47.40625 39.59375 52.65625 34.296875 
Q 57.90625 29 57.90625 20.125 
Q 57.90625 9.515625 50.796875 4.046875 
Q 43.703125 -1.421875 29.984375 -1.421875 
Q 24.8125 -1.421875 18.96875 -0.25 
Q 13.140625 0.921875 6.890625 3.21875 
L 6.890625 13.375 
Q 12.890625 10.015625 18.65625 8.296875 
Q 24.421875 6.59375 29.984375 6.59375 
Q 38.421875 6.59375 43.015625 9.90625 
Q 47.609375 13.234375 47.609375 19.390625 
Q 47.609375 24.75 44.3125 27.78125 
Q 41.015625 30.8125 33.5 32.328125 
L 27.484375 33.5 
Q 16.453125 35.6875 11.515625 40.375 
Q 6.59375 45.0625 6.59375 53.421875 
Q 6.59375 63.09375 13.40625 68.65625 
Q 20.21875 74.21875 32.171875 74.21875 
Q 37.3125 74.21875 42.625 73.28125 
Q 47.953125 72.359375 53.515625 70.515625 
z
" id="DejaVuSans-83"/>
     <path d="M 9.078125 75.984375 
L 18.109375 75.984375 
L 18.109375 31.109375 
L 44.921875 54.6875 
L 56.390625 54.6875 
L 27.390625 29.109375 
L 57.625 0 
L 45.90625 0 
L 18.109375 26.703125 
L 18.109375 0 
L 9.078125 0 
z
" id="DejaVuSans-107"/>
     <path id="DejaVuSans-32"/>
     <path d="M 28.609375 0 
L 0.78125 72.90625 
L 11.078125 72.90625 
L 34.1875 11.53125 
L 57.328125 72.90625 
L 67.578125 72.90625 
L 39.796875 0 
z
" id="DejaVuSans-86"/>
     <path d="M 9.8125 72.90625 
L 55.90625 72.90625 
L 55.90625 64.59375 
L 19.671875 64.59375 
L 19.671875 43.015625 
L 54.390625 43.015625 
L 54.390625 34.71875 
L 19.671875 34.71875 
L 19.671875 8.296875 
L 56.78125 8.296875 
L 56.78125 0 
L 9.8125 0 
z
" id="DejaVuSans-69"/>
     <path d="M 54.890625 33.015625 
L 54.890625 0 
L 45.90625 0 
L 45.90625 32.71875 
Q 45.90625 40.484375 42.875 44.328125 
Q 39.84375 48.1875 33.796875 48.1875 
Q 26.515625 48.1875 22.3125 43.546875 
Q 18.109375 38.921875 18.109375 30.90625 
L 18.109375 0 
L 9.078125 0 
L 9.078125 75.984375 
L 18.109375 75.984375 
L 18.109375 46.1875 
Q 21.34375 51.125 25.703125 53.5625 
Q 30.078125 56 35.796875 56 
Q 45.21875 56 50.046875 50.171875 
Q 54.890625 44.34375 54.890625 33.015625 
z
" id="DejaVuSans-104"/>
     <path d="M 19.671875 64.796875 
L 19.671875 37.40625 
L 32.078125 37.40625 
Q 38.96875 37.40625 42.71875 40.96875 
Q 46.484375 44.53125 46.484375 51.125 
Q 46.484375 57.671875 42.71875 61.234375 
Q 38.96875 64.796875 32.078125 64.796875 
z
M 9.8125 72.90625 
L 32.078125 72.90625 
Q 44.34375 72.90625 50.609375 67.359375 
Q 56.890625 61.8125 56.890625 51.125 
Q 56.890625 40.328125 50.609375 34.8125 
Q 44.34375 29.296875 32.078125 29.296875 
L 19.671875 29.296875 
L 19.671875 0 
L 9.8125 0 
z
" id="DejaVuSans-80"/>
    </defs>
    <use xlink:href="#DejaVuSans-83"/>
    <use x="63.476562" xlink:href="#DejaVuSans-116"/>
    <use x="102.685547" xlink:href="#DejaVuSans-97"/>
    <use x="163.964844" xlink:href="#DejaVuSans-99"/>
    <use x="218.945312" xlink:href="#DejaVuSans-107"/>
    <use x="273.230469" xlink:href="#DejaVuSans-101"/>
    <use x="334.753906" xlink:href="#DejaVuSans-100"/>
    <use x="398.230469" xlink:href="#DejaVuSans-32"/>
    <use x="430.017578" xlink:href="#DejaVuSans-86"/>
    <use x="496.175781" xlink:href="#DejaVuSans-105"/>
    <use x="523.958984" xlink:href="#DejaVuSans-114"/>
    <use x="565.072266" xlink:href="#DejaVuSans-116"/>
    <use x="604.28125" xlink:href="#DejaVuSans-117"/>
    <use x="667.660156" xlink:href="#DejaVuSans-101"/>
    <use x="729.183594" xlink:href="#DejaVuSans-32"/>
    <use x="760.970703" xlink:href="#DejaVuSans-69"/>
    <use x="824.154297" xlink:href="#DejaVuSans-116"/>
    <use x="863.363281" xlink:href="#DejaVuSans-104"/>
    <use x="926.742188" xlink:href="#DejaVuSans-105"/>
    <use x="954.525391" xlink:href="#DejaVuSans-99"/>
    <use x="1009.505859" xlink:href="#DejaVuSans-105"/>
    <use x="1037.289062" xlink:href="#DejaVuSans-115"/>
    <use x="1089.388672" xlink:href="#DejaVuSans-116"/>
    <use x="1128.597656" xlink:href="#DejaVuSans-115"/>
    <use x="1180.697266" xlink:href="#DejaVuSans-32"/>
    <use x="1212.484375" xlink:href="#DejaVuSans-80"/>
    <use x="1269.162109" xlink:href="#DejaVuSans-101"/>
    <use x="1330.685547" xlink:href="#DejaVuSans-114"/>
    <use x="1369.548828" xlink:href="#DejaVuSans-99"/>
    <use x="1424.529297" xlink:href="#DejaVuSans-101"/>
    <use x="1486.052734" xlink:href="#DejaVuSans-110"/>
    <use x="1549.431641" xlink:href="#DejaVuSans-116"/>
    <use x="1588.640625" xlink:href="#DejaVuSans-105"/>
    <use x="1616.423828" xlink:href="#DejaVuSans-108"/>
    <use x="1644.207031" xlink:href="#DejaVuSans-101"/>
    <use x="1705.730469" xlink:href="#DejaVuSans-32"/>
    <use x="1737.517578" xlink:href="#DejaVuSans-83"/>
    <use x="1800.994141" xlink:href="#DejaVuSans-99"/>
    <use x="1855.974609" xlink:href="#DejaVuSans-111"/>
    <use x="1917.15625" xlink:href="#DejaVuSans-114"/>
    <use x="1956.019531" xlink:href="#DejaVuSans-101"/>
    <use x="2017.542969" xlink:href="#DejaVuSans-115"/>
   </g>
  </g>
 </g>
 <defs>
  <clipPath id="p82b41e6a97">
   <path d="M 399.7425 213.48 
C 399.7425 192.064531 395.524119 170.8573 387.328774 151.071986 
C 379.133429 131.286672 367.120497 113.30805 351.977474 98.165026 
C 336.83445 83.022003 318.855828 71.009071 299.070514 62.813726 
C 279.2852 54.618381 258.077969 50.4 236.6625 50.4 
C 215.247031 50.4 194.0398 54.618381 174.254486 62.813726 
C 154.469172 71.009071 136.49055 83.022003 121.347526 98.165026 
C 106.204503 113.30805 94.191571 131.286672 85.996226 151.071986 
C 77.800881 170.8573 73.5825 192.064531 73.5825 213.48 
C 73.5825 234.895469 77.800881 256.1027 85.996226 275.888014 
C 94.191571 295.673328 106.204503 313.65195 121.347526 328.794974 
C 136.49055 343.937997 154.469172 355.950929 174.254486 364.146274 
C 194.0398 372.341619 215.247031 376.56 236.6625 376.56 
C 258.077969 376.56 279.2852 372.341619 299.070514 364.146274 
C 318.855828 355.950929 336.83445 343.937997 351.977474 328.794974 
C 367.120497 313.65195 379.133429 295.673328 387.328774 275.888014 
C 395.524119 256.1027 399.7425 234.895469 399.7425 213.48 
M 236.6625 213.48 
C 236.6625 213.48 236.6625 213.48 236.6625 213.48 
C 236.6625 213.48 236.6625 213.48 236.6625 213.48 
C 236.6625 213.48 236.6625 213.48 236.6625 213.48 
C 236.6625 213.48 236.6625 213.48 236.6625 213.48 
C 236.6625 213.48 236.6625 213.48 236.6625 213.48 
C 236.6625 213.48 236.6625 213.48 236.6625 213.48 
C 236.6625 213.48 236.6625 213.48 236.6625 213.48 
C 236.6625 213.48 236.6625 213.48 236.6625 213.48 
C 236.6625 213.48 236.6625 213.48 236.6625 213.48 
C 236.6625 213.48 236.6625 213.48 236.6625 213.48 
C 236.6625 213.48 236.6625 213.48 236.6625 213.48 
C 236.6625 213.48 236.6625 213.48 236.6625 213.48 
C 236.6625 213.48 236.6625 213.48 236.6625 213.48 
C 236.6625 213.48 236.6625 213.48 236.6625 213.48 
C 236.6625 213.48 236.6625 213.48 236.6625 213.48 
C 236.6625 213.48 236.6625 213.48 236.6625 213.48 
M 399.7425 213.48 
z
"/>
  </clipPath>
 </defs>
</svg>
