<?xml version="1.0" encoding="utf-8" standalone="no"?>
<!DOCTYPE svg PUBLIC "-//W3C//DTD SVG 1.1//EN"
  "http://www.w3.org/Graphics/SVG/1.1/DTD/svg11.dtd">
<!-- Created with matplotlib (https://matplotlib.org/) -->
<svg height="395.066838pt" version="1.1" viewBox="0 0 468.72375 395.066838" width="468.72375pt" xmlns="http://www.w3.org/2000/svg" xmlns:xlink="http://www.w3.org/1999/xlink">
 <metadata>
  <rdf:RDF xmlns:cc="http://creativecommons.org/ns#" xmlns:dc="http://purl.org/dc/elements/1.1/" xmlns:rdf="http://www.w3.org/1999/02/22-rdf-syntax-ns#">
   <cc:Work>
    <dc:type rdf:resource="http://purl.org/dc/dcmitype/StillImage"/>
    <dc:date>2020-08-07T02:24:03.134112</dc:date>
    <dc:format>image/svg+xml</dc:format>
    <dc:creator>
     <cc:Agent>
      <dc:title>Matplotlib v3.3.0, https://matplotlib.org/</dc:title>
     </cc:Agent>
    </dc:creator>
   </cc:Work>
  </rdf:RDF>
 </metadata>
 <defs>
  <style type="text/css">*{stroke-linecap:butt;stroke-linejoin:round;}</style>
 </defs>
 <g id="figure_1">
  <g id="patch_1">
   <path d="M 0 395.066838 
L 468.72375 395.066838 
L 468.72375 0 
L 0 0 
z
" style="fill:none;"/>
  </g>
  <g id="axes_1">
   <g id="patch_2">
    <path d="M 418.803437 213.48 
C 418.803437 192.064531 414.585057 170.8573 406.389712 151.071986 
C 398.194366 131.286672 386.181435 113.30805 371.038411 98.165026 
C 355.895388 83.022003 337.916765 71.009071 318.131452 62.813726 
C 298.346138 54.618381 277.138907 50.4 255.723437 50.4 
C 234.307968 50.4 213.100737 54.618381 193.315423 62.813726 
C 173.53011 71.009071 155.551487 83.022003 140.408464 98.165026 
C 125.26544 113.30805 113.252509 131.286672 105.057163 151.071986 
C 96.861818 170.8573 92.643438 192.064531 92.643438 213.48 
C 92.643438 234.895469 96.861818 256.1027 105.057163 275.888014 
C 113.252509 295.673328 125.26544 313.65195 140.408464 328.794974 
C 155.551487 343.937997 173.53011 355.950929 193.315423 364.146274 
C 213.100737 372.341619 234.307968 376.56 255.723437 376.56 
C 277.138907 376.56 298.346138 372.341619 318.131452 364.146274 
C 337.916765 355.950929 355.895388 343.937997 371.038411 328.794974 
C 386.181435 313.65195 398.194366 295.673328 406.389712 275.888014 
C 414.585057 256.1027 418.803437 234.895469 418.803437 213.48 
M 255.723437 213.48 
C 255.723437 213.48 255.723437 213.48 255.723437 213.48 
C 255.723437 213.48 255.723437 213.48 255.723437 213.48 
C 255.723437 213.48 255.723437 213.48 255.723437 213.48 
C 255.723437 213.48 255.723437 213.48 255.723437 213.48 
C 255.723437 213.48 255.723437 213.48 255.723437 213.48 
C 255.723437 213.48 255.723437 213.48 255.723437 213.48 
C 255.723437 213.48 255.723437 213.48 255.723437 213.48 
C 255.723437 213.48 255.723437 213.48 255.723437 213.48 
C 255.723437 213.48 255.723437 213.48 255.723437 213.48 
C 255.723437 213.48 255.723437 213.48 255.723437 213.48 
C 255.723437 213.48 255.723437 213.48 255.723437 213.48 
C 255.723437 213.48 255.723437 213.48 255.723437 213.48 
C 255.723437 213.48 255.723437 213.48 255.723437 213.48 
C 255.723437 213.48 255.723437 213.48 255.723437 213.48 
C 255.723437 213.48 255.723437 213.48 255.723437 213.48 
C 255.723437 213.48 255.723437 213.48 255.723437 213.48 
M 418.803437 213.48 
z
" style="fill:#ffffff;"/>
   </g>
   <g id="patch_3">
    <path clip-path="url(#p37fc2bf00c)" d="M 418.802158 213.48 
L 286.759866 117.959694 
L 252.665782 211.258484 
L 252.027069 216.165569 
L 271.36401 261.616734 
z
" style="fill:#808080;opacity:0.1;"/>
   </g>
   <g id="patch_4">
    <path clip-path="url(#p37fc2bf00c)" d="M 418.794384 213.48 
L 288.081925 113.890817 
L 236.479166 199.498218 
L 248.044173 219.059313 
L 270.554452 259.12517 
z
" style="fill:#808080;opacity:0.1;"/>
   </g>
   <g id="patch_5">
    <path clip-path="url(#p37fc2bf00c)" d="M 418.798988 213.48 
L 286.495057 118.774692 
L 247.209803 207.294483 
L 254.370104 214.463254 
L 265.153312 242.50217 
z
" style="fill:#808080;opacity:0.1;"/>
   </g>
   <g id="patch_6">
    <path clip-path="url(#p37fc2bf00c)" d="M 418.802874 213.48 
L 288.999026 111.068268 
L 244.938441 205.644241 
L 252.302337 215.965575 
L 260.405136 227.888788 
z
" style="fill:#808080;opacity:0.1;"/>
   </g>
   <g id="patch_7">
    <path clip-path="url(#p37fc2bf00c)" d="M 418.798448 213.48 
L 289.042813 110.933507 
L 246.467331 206.755045 
L 252.117901 216.099576 
L 271.340701 261.544994 
z
" style="fill:#808080;opacity:0.1;"/>
   </g>
   <g id="matplotlib.axis_1">
    <g id="xtick_1">
     <g id="line2d_1">
      <path clip-path="url(#p37fc2bf00c)" d="M 255.723437 213.48 
L 418.803437 213.48 
" style="fill:none;stroke:#b0b0b0;stroke-linecap:square;stroke-width:0.8;"/>
     </g>
     <g id="text_1">
      <!-- openness -->
      <g style="fill:#808080;" transform="translate(404.083125 216.79125)scale(0.12 -0.12)">
       <defs>
        <path d="M 30.609375 48.390625 
Q 23.390625 48.390625 19.1875 42.75 
Q 14.984375 37.109375 14.984375 27.296875 
Q 14.984375 17.484375 19.15625 11.84375 
Q 23.34375 6.203125 30.609375 6.203125 
Q 37.796875 6.203125 41.984375 11.859375 
Q 46.1875 17.53125 46.1875 27.296875 
Q 46.1875 37.015625 41.984375 42.703125 
Q 37.796875 48.390625 30.609375 48.390625 
z
M 30.609375 56 
Q 42.328125 56 49.015625 48.375 
Q 55.71875 40.765625 55.71875 27.296875 
Q 55.71875 13.875 49.015625 6.21875 
Q 42.328125 -1.421875 30.609375 -1.421875 
Q 18.84375 -1.421875 12.171875 6.21875 
Q 5.515625 13.875 5.515625 27.296875 
Q 5.515625 40.765625 12.171875 48.375 
Q 18.84375 56 30.609375 56 
z
" id="DejaVuSans-111"/>
        <path d="M 18.109375 8.203125 
L 18.109375 -20.796875 
L 9.078125 -20.796875 
L 9.078125 54.6875 
L 18.109375 54.6875 
L 18.109375 46.390625 
Q 20.953125 51.265625 25.265625 53.625 
Q 29.59375 56 35.59375 56 
Q 45.5625 56 51.78125 48.09375 
Q 58.015625 40.1875 58.015625 27.296875 
Q 58.015625 14.40625 51.78125 6.484375 
Q 45.5625 -1.421875 35.59375 -1.421875 
Q 29.59375 -1.421875 25.265625 0.953125 
Q 20.953125 3.328125 18.109375 8.203125 
z
M 48.6875 27.296875 
Q 48.6875 37.203125 44.609375 42.84375 
Q 40.53125 48.484375 33.40625 48.484375 
Q 26.265625 48.484375 22.1875 42.84375 
Q 18.109375 37.203125 18.109375 27.296875 
Q 18.109375 17.390625 22.1875 11.75 
Q 26.265625 6.109375 33.40625 6.109375 
Q 40.53125 6.109375 44.609375 11.75 
Q 48.6875 17.390625 48.6875 27.296875 
z
" id="DejaVuSans-112"/>
        <path d="M 56.203125 29.59375 
L 56.203125 25.203125 
L 14.890625 25.203125 
Q 15.484375 15.921875 20.484375 11.0625 
Q 25.484375 6.203125 34.421875 6.203125 
Q 39.59375 6.203125 44.453125 7.46875 
Q 49.3125 8.734375 54.109375 11.28125 
L 54.109375 2.78125 
Q 49.265625 0.734375 44.1875 -0.34375 
Q 39.109375 -1.421875 33.890625 -1.421875 
Q 20.796875 -1.421875 13.15625 6.1875 
Q 5.515625 13.8125 5.515625 26.8125 
Q 5.515625 40.234375 12.765625 48.109375 
Q 20.015625 56 32.328125 56 
Q 43.359375 56 49.78125 48.890625 
Q 56.203125 41.796875 56.203125 29.59375 
z
M 47.21875 32.234375 
Q 47.125 39.59375 43.09375 43.984375 
Q 39.0625 48.390625 32.421875 48.390625 
Q 24.90625 48.390625 20.390625 44.140625 
Q 15.875 39.890625 15.1875 32.171875 
z
" id="DejaVuSans-101"/>
        <path d="M 54.890625 33.015625 
L 54.890625 0 
L 45.90625 0 
L 45.90625 32.71875 
Q 45.90625 40.484375 42.875 44.328125 
Q 39.84375 48.1875 33.796875 48.1875 
Q 26.515625 48.1875 22.3125 43.546875 
Q 18.109375 38.921875 18.109375 30.90625 
L 18.109375 0 
L 9.078125 0 
L 9.078125 54.6875 
L 18.109375 54.6875 
L 18.109375 46.1875 
Q 21.34375 51.125 25.703125 53.5625 
Q 30.078125 56 35.796875 56 
Q 45.21875 56 50.046875 50.171875 
Q 54.890625 44.34375 54.890625 33.015625 
z
" id="DejaVuSans-110"/>
        <path d="M 44.28125 53.078125 
L 44.28125 44.578125 
Q 40.484375 46.53125 36.375 47.5 
Q 32.28125 48.484375 27.875 48.484375 
Q 21.1875 48.484375 17.84375 46.4375 
Q 14.5 44.390625 14.5 40.28125 
Q 14.5 37.15625 16.890625 35.375 
Q 19.28125 33.59375 26.515625 31.984375 
L 29.59375 31.296875 
Q 39.15625 29.25 43.1875 25.515625 
Q 47.21875 21.78125 47.21875 15.09375 
Q 47.21875 7.46875 41.1875 3.015625 
Q 35.15625 -1.421875 24.609375 -1.421875 
Q 20.21875 -1.421875 15.453125 -0.5625 
Q 10.6875 0.296875 5.421875 2 
L 5.421875 11.28125 
Q 10.40625 8.6875 15.234375 7.390625 
Q 20.0625 6.109375 24.8125 6.109375 
Q 31.15625 6.109375 34.5625 8.28125 
Q 37.984375 10.453125 37.984375 14.40625 
Q 37.984375 18.0625 35.515625 20.015625 
Q 33.0625 21.96875 24.703125 23.78125 
L 21.578125 24.515625 
Q 13.234375 26.265625 9.515625 29.90625 
Q 5.8125 33.546875 5.8125 39.890625 
Q 5.8125 47.609375 11.28125 51.796875 
Q 16.75 56 26.8125 56 
Q 31.78125 56 36.171875 55.265625 
Q 40.578125 54.546875 44.28125 53.078125 
z
" id="DejaVuSans-115"/>
       </defs>
       <use xlink:href="#DejaVuSans-111"/>
       <use x="61.181641" xlink:href="#DejaVuSans-112"/>
       <use x="124.658203" xlink:href="#DejaVuSans-101"/>
       <use x="186.181641" xlink:href="#DejaVuSans-110"/>
       <use x="249.560547" xlink:href="#DejaVuSans-110"/>
       <use x="312.939453" xlink:href="#DejaVuSans-101"/>
       <use x="374.462891" xlink:href="#DejaVuSans-115"/>
       <use x="426.5625" xlink:href="#DejaVuSans-115"/>
      </g>
     </g>
    </g>
    <g id="xtick_2">
     <g id="line2d_2">
      <path clip-path="url(#p37fc2bf00c)" d="M 255.723437 213.48 
L 306.117929 58.381703 
" style="fill:none;stroke:#b0b0b0;stroke-linecap:square;stroke-width:0.8;"/>
     </g>
     <g id="text_2">
      <!-- conscientiousness -->
      <g style="fill:#808080;" transform="translate(255.721354 48.378162)scale(0.12 -0.12)">
       <defs>
        <path d="M 48.78125 52.59375 
L 48.78125 44.1875 
Q 44.96875 46.296875 41.140625 47.34375 
Q 37.3125 48.390625 33.40625 48.390625 
Q 24.65625 48.390625 19.8125 42.84375 
Q 14.984375 37.3125 14.984375 27.296875 
Q 14.984375 17.28125 19.8125 11.734375 
Q 24.65625 6.203125 33.40625 6.203125 
Q 37.3125 6.203125 41.140625 7.25 
Q 44.96875 8.296875 48.78125 10.40625 
L 48.78125 2.09375 
Q 45.015625 0.34375 40.984375 -0.53125 
Q 36.96875 -1.421875 32.421875 -1.421875 
Q 20.0625 -1.421875 12.78125 6.34375 
Q 5.515625 14.109375 5.515625 27.296875 
Q 5.515625 40.671875 12.859375 48.328125 
Q 20.21875 56 33.015625 56 
Q 37.15625 56 41.109375 55.140625 
Q 45.0625 54.296875 48.78125 52.59375 
z
" id="DejaVuSans-99"/>
        <path d="M 9.421875 54.6875 
L 18.40625 54.6875 
L 18.40625 0 
L 9.421875 0 
z
M 9.421875 75.984375 
L 18.40625 75.984375 
L 18.40625 64.59375 
L 9.421875 64.59375 
z
" id="DejaVuSans-105"/>
        <path d="M 18.3125 70.21875 
L 18.3125 54.6875 
L 36.8125 54.6875 
L 36.8125 47.703125 
L 18.3125 47.703125 
L 18.3125 18.015625 
Q 18.3125 11.328125 20.140625 9.421875 
Q 21.96875 7.515625 27.59375 7.515625 
L 36.8125 7.515625 
L 36.8125 0 
L 27.59375 0 
Q 17.1875 0 13.234375 3.875 
Q 9.28125 7.765625 9.28125 18.015625 
L 9.28125 47.703125 
L 2.6875 47.703125 
L 2.6875 54.6875 
L 9.28125 54.6875 
L 9.28125 70.21875 
z
" id="DejaVuSans-116"/>
        <path d="M 8.5 21.578125 
L 8.5 54.6875 
L 17.484375 54.6875 
L 17.484375 21.921875 
Q 17.484375 14.15625 20.5 10.265625 
Q 23.53125 6.390625 29.59375 6.390625 
Q 36.859375 6.390625 41.078125 11.03125 
Q 45.3125 15.671875 45.3125 23.6875 
L 45.3125 54.6875 
L 54.296875 54.6875 
L 54.296875 0 
L 45.3125 0 
L 45.3125 8.40625 
Q 42.046875 3.421875 37.71875 1 
Q 33.40625 -1.421875 27.6875 -1.421875 
Q 18.265625 -1.421875 13.375 4.4375 
Q 8.5 10.296875 8.5 21.578125 
z
M 31.109375 56 
z
" id="DejaVuSans-117"/>
       </defs>
       <use xlink:href="#DejaVuSans-99"/>
       <use x="54.980469" xlink:href="#DejaVuSans-111"/>
       <use x="116.162109" xlink:href="#DejaVuSans-110"/>
       <use x="179.541016" xlink:href="#DejaVuSans-115"/>
       <use x="231.640625" xlink:href="#DejaVuSans-99"/>
       <use x="286.621094" xlink:href="#DejaVuSans-105"/>
       <use x="314.404297" xlink:href="#DejaVuSans-101"/>
       <use x="375.927734" xlink:href="#DejaVuSans-110"/>
       <use x="439.306641" xlink:href="#DejaVuSans-116"/>
       <use x="478.515625" xlink:href="#DejaVuSans-105"/>
       <use x="506.298828" xlink:href="#DejaVuSans-111"/>
       <use x="567.480469" xlink:href="#DejaVuSans-117"/>
       <use x="630.859375" xlink:href="#DejaVuSans-115"/>
       <use x="682.958984" xlink:href="#DejaVuSans-110"/>
       <use x="746.337891" xlink:href="#DejaVuSans-101"/>
       <use x="807.861328" xlink:href="#DejaVuSans-115"/>
       <use x="859.960938" xlink:href="#DejaVuSans-115"/>
      </g>
     </g>
    </g>
    <g id="xtick_3">
     <g id="line2d_3">
      <path clip-path="url(#p37fc2bf00c)" d="M 255.723437 213.48 
L 123.788946 117.623981 
" style="fill:none;stroke:#b0b0b0;stroke-linecap:square;stroke-width:0.8;"/>
     </g>
     <g id="text_3">
      <!-- extraversion -->
      <g style="fill:#808080;" transform="translate(74.853021 112.706238)scale(0.12 -0.12)">
       <defs>
        <path d="M 54.890625 54.6875 
L 35.109375 28.078125 
L 55.90625 0 
L 45.3125 0 
L 29.390625 21.484375 
L 13.484375 0 
L 2.875 0 
L 24.125 28.609375 
L 4.6875 54.6875 
L 15.28125 54.6875 
L 29.78125 35.203125 
L 44.28125 54.6875 
z
" id="DejaVuSans-120"/>
        <path d="M 41.109375 46.296875 
Q 39.59375 47.171875 37.8125 47.578125 
Q 36.03125 48 33.890625 48 
Q 26.265625 48 22.1875 43.046875 
Q 18.109375 38.09375 18.109375 28.8125 
L 18.109375 0 
L 9.078125 0 
L 9.078125 54.6875 
L 18.109375 54.6875 
L 18.109375 46.1875 
Q 20.953125 51.171875 25.484375 53.578125 
Q 30.03125 56 36.53125 56 
Q 37.453125 56 38.578125 55.875 
Q 39.703125 55.765625 41.0625 55.515625 
z
" id="DejaVuSans-114"/>
        <path d="M 34.28125 27.484375 
Q 23.390625 27.484375 19.1875 25 
Q 14.984375 22.515625 14.984375 16.5 
Q 14.984375 11.71875 18.140625 8.90625 
Q 21.296875 6.109375 26.703125 6.109375 
Q 34.1875 6.109375 38.703125 11.40625 
Q 43.21875 16.703125 43.21875 25.484375 
L 43.21875 27.484375 
z
M 52.203125 31.203125 
L 52.203125 0 
L 43.21875 0 
L 43.21875 8.296875 
Q 40.140625 3.328125 35.546875 0.953125 
Q 30.953125 -1.421875 24.3125 -1.421875 
Q 15.921875 -1.421875 10.953125 3.296875 
Q 6 8.015625 6 15.921875 
Q 6 25.140625 12.171875 29.828125 
Q 18.359375 34.515625 30.609375 34.515625 
L 43.21875 34.515625 
L 43.21875 35.40625 
Q 43.21875 41.609375 39.140625 45 
Q 35.0625 48.390625 27.6875 48.390625 
Q 23 48.390625 18.546875 47.265625 
Q 14.109375 46.140625 10.015625 43.890625 
L 10.015625 52.203125 
Q 14.9375 54.109375 19.578125 55.046875 
Q 24.21875 56 28.609375 56 
Q 40.484375 56 46.34375 49.84375 
Q 52.203125 43.703125 52.203125 31.203125 
z
" id="DejaVuSans-97"/>
        <path d="M 2.984375 54.6875 
L 12.5 54.6875 
L 29.59375 8.796875 
L 46.6875 54.6875 
L 56.203125 54.6875 
L 35.6875 0 
L 23.484375 0 
z
" id="DejaVuSans-118"/>
       </defs>
       <use xlink:href="#DejaVuSans-101"/>
       <use x="59.773438" xlink:href="#DejaVuSans-120"/>
       <use x="118.953125" xlink:href="#DejaVuSans-116"/>
       <use x="158.162109" xlink:href="#DejaVuSans-114"/>
       <use x="199.275391" xlink:href="#DejaVuSans-97"/>
       <use x="260.554688" xlink:href="#DejaVuSans-118"/>
       <use x="319.734375" xlink:href="#DejaVuSans-101"/>
       <use x="381.257812" xlink:href="#DejaVuSans-114"/>
       <use x="422.371094" xlink:href="#DejaVuSans-115"/>
       <use x="474.470703" xlink:href="#DejaVuSans-105"/>
       <use x="502.253906" xlink:href="#DejaVuSans-111"/>
       <use x="563.435547" xlink:href="#DejaVuSans-110"/>
      </g>
     </g>
    </g>
    <g id="xtick_4">
     <g id="line2d_4">
      <path clip-path="url(#p37fc2bf00c)" d="M 255.723437 213.48 
L 123.788946 309.336019 
" style="fill:none;stroke:#b0b0b0;stroke-linecap:square;stroke-width:0.8;"/>
     </g>
     <g id="text_4">
      <!-- agreeableness -->
      <g style="fill:#808080;" transform="translate(68.671146 320.876262)scale(0.12 -0.12)">
       <defs>
        <path d="M 45.40625 27.984375 
Q 45.40625 37.75 41.375 43.109375 
Q 37.359375 48.484375 30.078125 48.484375 
Q 22.859375 48.484375 18.828125 43.109375 
Q 14.796875 37.75 14.796875 27.984375 
Q 14.796875 18.265625 18.828125 12.890625 
Q 22.859375 7.515625 30.078125 7.515625 
Q 37.359375 7.515625 41.375 12.890625 
Q 45.40625 18.265625 45.40625 27.984375 
z
M 54.390625 6.78125 
Q 54.390625 -7.171875 48.1875 -13.984375 
Q 42 -20.796875 29.203125 -20.796875 
Q 24.46875 -20.796875 20.265625 -20.09375 
Q 16.0625 -19.390625 12.109375 -17.921875 
L 12.109375 -9.1875 
Q 16.0625 -11.328125 19.921875 -12.34375 
Q 23.78125 -13.375 27.78125 -13.375 
Q 36.625 -13.375 41.015625 -8.765625 
Q 45.40625 -4.15625 45.40625 5.171875 
L 45.40625 9.625 
Q 42.625 4.78125 38.28125 2.390625 
Q 33.9375 0 27.875 0 
Q 17.828125 0 11.671875 7.65625 
Q 5.515625 15.328125 5.515625 27.984375 
Q 5.515625 40.671875 11.671875 48.328125 
Q 17.828125 56 27.875 56 
Q 33.9375 56 38.28125 53.609375 
Q 42.625 51.21875 45.40625 46.390625 
L 45.40625 54.6875 
L 54.390625 54.6875 
z
" id="DejaVuSans-103"/>
        <path d="M 48.6875 27.296875 
Q 48.6875 37.203125 44.609375 42.84375 
Q 40.53125 48.484375 33.40625 48.484375 
Q 26.265625 48.484375 22.1875 42.84375 
Q 18.109375 37.203125 18.109375 27.296875 
Q 18.109375 17.390625 22.1875 11.75 
Q 26.265625 6.109375 33.40625 6.109375 
Q 40.53125 6.109375 44.609375 11.75 
Q 48.6875 17.390625 48.6875 27.296875 
z
M 18.109375 46.390625 
Q 20.953125 51.265625 25.265625 53.625 
Q 29.59375 56 35.59375 56 
Q 45.5625 56 51.78125 48.09375 
Q 58.015625 40.1875 58.015625 27.296875 
Q 58.015625 14.40625 51.78125 6.484375 
Q 45.5625 -1.421875 35.59375 -1.421875 
Q 29.59375 -1.421875 25.265625 0.953125 
Q 20.953125 3.328125 18.109375 8.203125 
L 18.109375 0 
L 9.078125 0 
L 9.078125 75.984375 
L 18.109375 75.984375 
z
" id="DejaVuSans-98"/>
        <path d="M 9.421875 75.984375 
L 18.40625 75.984375 
L 18.40625 0 
L 9.421875 0 
z
" id="DejaVuSans-108"/>
       </defs>
       <use xlink:href="#DejaVuSans-97"/>
       <use x="61.279297" xlink:href="#DejaVuSans-103"/>
       <use x="124.755859" xlink:href="#DejaVuSans-114"/>
       <use x="163.619141" xlink:href="#DejaVuSans-101"/>
       <use x="225.142578" xlink:href="#DejaVuSans-101"/>
       <use x="286.666016" xlink:href="#DejaVuSans-97"/>
       <use x="347.945312" xlink:href="#DejaVuSans-98"/>
       <use x="411.421875" xlink:href="#DejaVuSans-108"/>
       <use x="439.205078" xlink:href="#DejaVuSans-101"/>
       <use x="500.728516" xlink:href="#DejaVuSans-110"/>
       <use x="564.107422" xlink:href="#DejaVuSans-101"/>
       <use x="625.630859" xlink:href="#DejaVuSans-115"/>
       <use x="677.730469" xlink:href="#DejaVuSans-115"/>
      </g>
     </g>
    </g>
    <g id="xtick_5">
     <g id="line2d_5">
      <path clip-path="url(#p37fc2bf00c)" d="M 255.723437 213.48 
L 306.117929 368.578297 
" style="fill:none;stroke:#b0b0b0;stroke-linecap:square;stroke-width:0.8;"/>
     </g>
     <g id="text_5">
      <!-- emotional_range -->
      <g style="fill:#808080;" transform="translate(259.953229 385.037463)scale(0.12 -0.12)">
       <defs>
        <path d="M 52 44.1875 
Q 55.375 50.25 60.0625 53.125 
Q 64.75 56 71.09375 56 
Q 79.640625 56 84.28125 50.015625 
Q 88.921875 44.046875 88.921875 33.015625 
L 88.921875 0 
L 79.890625 0 
L 79.890625 32.71875 
Q 79.890625 40.578125 77.09375 44.375 
Q 74.3125 48.1875 68.609375 48.1875 
Q 61.625 48.1875 57.5625 43.546875 
Q 53.515625 38.921875 53.515625 30.90625 
L 53.515625 0 
L 44.484375 0 
L 44.484375 32.71875 
Q 44.484375 40.625 41.703125 44.40625 
Q 38.921875 48.1875 33.109375 48.1875 
Q 26.21875 48.1875 22.15625 43.53125 
Q 18.109375 38.875 18.109375 30.90625 
L 18.109375 0 
L 9.078125 0 
L 9.078125 54.6875 
L 18.109375 54.6875 
L 18.109375 46.1875 
Q 21.1875 51.21875 25.484375 53.609375 
Q 29.78125 56 35.6875 56 
Q 41.65625 56 45.828125 52.96875 
Q 50 49.953125 52 44.1875 
z
" id="DejaVuSans-109"/>
        <path d="M 50.984375 -16.609375 
L 50.984375 -23.578125 
L -0.984375 -23.578125 
L -0.984375 -16.609375 
z
" id="DejaVuSans-95"/>
       </defs>
       <use xlink:href="#DejaVuSans-101"/>
       <use x="61.523438" xlink:href="#DejaVuSans-109"/>
       <use x="158.935547" xlink:href="#DejaVuSans-111"/>
       <use x="220.117188" xlink:href="#DejaVuSans-116"/>
       <use x="259.326172" xlink:href="#DejaVuSans-105"/>
       <use x="287.109375" xlink:href="#DejaVuSans-111"/>
       <use x="348.291016" xlink:href="#DejaVuSans-110"/>
       <use x="411.669922" xlink:href="#DejaVuSans-97"/>
       <use x="472.949219" xlink:href="#DejaVuSans-108"/>
       <use x="500.732422" xlink:href="#DejaVuSans-95"/>
       <use x="550.732422" xlink:href="#DejaVuSans-114"/>
       <use x="591.845703" xlink:href="#DejaVuSans-97"/>
       <use x="653.125" xlink:href="#DejaVuSans-110"/>
       <use x="716.503906" xlink:href="#DejaVuSans-103"/>
       <use x="779.980469" xlink:href="#DejaVuSans-101"/>
      </g>
     </g>
    </g>
   </g>
   <g id="matplotlib.axis_2">
    <g id="ytick_1">
     <g id="line2d_6">
      <path clip-path="url(#p37fc2bf00c)" d="M 255.723437 213.48 
C 255.723437 213.48 255.723437 213.48 255.723437 213.48 
C 255.723437 213.48 255.723437 213.48 255.723437 213.48 
C 255.723437 213.48 255.723437 213.48 255.723437 213.48 
C 255.723437 213.48 255.723437 213.48 255.723437 213.48 
C 255.723437 213.48 255.723437 213.48 255.723437 213.48 
C 255.723437 213.48 255.723437 213.48 255.723437 213.48 
C 255.723437 213.48 255.723437 213.48 255.723437 213.48 
C 255.723437 213.48 255.723437 213.48 255.723437 213.48 
C 255.723437 213.48 255.723437 213.48 255.723437 213.48 
C 255.723437 213.48 255.723437 213.48 255.723437 213.48 
C 255.723437 213.48 255.723437 213.48 255.723437 213.48 
C 255.723437 213.48 255.723437 213.48 255.723437 213.48 
C 255.723437 213.48 255.723437 213.48 255.723437 213.48 
C 255.723437 213.48 255.723437 213.48 255.723437 213.48 
C 255.723437 213.48 255.723437 213.48 255.723437 213.48 
C 255.723437 213.48 255.723437 213.48 255.723437 213.48 
" style="fill:none;stroke:#b0b0b0;stroke-linecap:square;stroke-width:0.8;"/>
     </g>
     <g id="text_6">
      <!-- 0 -->
      <g style="fill:#808080;" transform="translate(255.723437 211.400312)scale(0.1 -0.1)">
       <defs>
        <path d="M 31.78125 66.40625 
Q 24.171875 66.40625 20.328125 58.90625 
Q 16.5 51.421875 16.5 36.375 
Q 16.5 21.390625 20.328125 13.890625 
Q 24.171875 6.390625 31.78125 6.390625 
Q 39.453125 6.390625 43.28125 13.890625 
Q 47.125 21.390625 47.125 36.375 
Q 47.125 51.421875 43.28125 58.90625 
Q 39.453125 66.40625 31.78125 66.40625 
z
M 31.78125 74.21875 
Q 44.046875 74.21875 50.515625 64.515625 
Q 56.984375 54.828125 56.984375 36.375 
Q 56.984375 17.96875 50.515625 8.265625 
Q 44.046875 -1.421875 31.78125 -1.421875 
Q 19.53125 -1.421875 13.0625 8.265625 
Q 6.59375 17.96875 6.59375 36.375 
Q 6.59375 54.828125 13.0625 64.515625 
Q 19.53125 74.21875 31.78125 74.21875 
z
" id="DejaVuSans-48"/>
       </defs>
       <use xlink:href="#DejaVuSans-48"/>
      </g>
     </g>
    </g>
    <g id="ytick_2">
     <g id="line2d_7">
      <path clip-path="url(#p37fc2bf00c)" d="M 296.493437 213.48 
C 296.493437 208.126133 295.438842 202.824325 293.390006 197.877996 
C 291.34117 192.931668 288.337937 188.437012 284.552181 184.651257 
C 280.766425 180.865501 276.271769 177.862268 271.325441 175.813431 
C 266.379113 173.764595 261.077305 172.71 255.723437 172.71 
C 250.36957 172.71 245.067762 173.764595 240.121434 175.813431 
C 235.175106 177.862268 230.68045 180.865501 226.894694 184.651257 
C 223.108938 188.437012 220.105705 192.931668 218.056869 197.877996 
C 216.008033 202.824325 214.953438 208.126133 214.953438 213.48 
C 214.953438 218.833867 216.008033 224.135675 218.056869 229.082004 
C 220.105705 234.028332 223.108938 238.522988 226.894694 242.308743 
C 230.68045 246.094499 235.175106 249.097732 240.121434 251.146569 
C 245.067762 253.195405 250.36957 254.25 255.723437 254.25 
C 261.077305 254.25 266.379113 253.195405 271.325441 251.146569 
C 276.271769 249.097732 280.766425 246.094499 284.552181 242.308743 
C 288.337937 238.522988 291.34117 234.028332 293.390006 229.082004 
C 295.438842 224.135675 296.493437 218.833867 296.493437 213.48 
" style="fill:none;stroke:#b0b0b0;stroke-linecap:square;stroke-width:0.8;"/>
     </g>
     <g id="text_7">
      <!-- 25 -->
      <g style="fill:#808080;" transform="translate(293.390006 195.798309)scale(0.1 -0.1)">
       <defs>
        <path d="M 19.1875 8.296875 
L 53.609375 8.296875 
L 53.609375 0 
L 7.328125 0 
L 7.328125 8.296875 
Q 12.9375 14.109375 22.625 23.890625 
Q 32.328125 33.6875 34.8125 36.53125 
Q 39.546875 41.84375 41.421875 45.53125 
Q 43.3125 49.21875 43.3125 52.78125 
Q 43.3125 58.59375 39.234375 62.25 
Q 35.15625 65.921875 28.609375 65.921875 
Q 23.96875 65.921875 18.8125 64.3125 
Q 13.671875 62.703125 7.8125 59.421875 
L 7.8125 69.390625 
Q 13.765625 71.78125 18.9375 73 
Q 24.125 74.21875 28.421875 74.21875 
Q 39.75 74.21875 46.484375 68.546875 
Q 53.21875 62.890625 53.21875 53.421875 
Q 53.21875 48.921875 51.53125 44.890625 
Q 49.859375 40.875 45.40625 35.40625 
Q 44.1875 33.984375 37.640625 27.21875 
Q 31.109375 20.453125 19.1875 8.296875 
z
" id="DejaVuSans-50"/>
        <path d="M 10.796875 72.90625 
L 49.515625 72.90625 
L 49.515625 64.59375 
L 19.828125 64.59375 
L 19.828125 46.734375 
Q 21.96875 47.46875 24.109375 47.828125 
Q 26.265625 48.1875 28.421875 48.1875 
Q 40.625 48.1875 47.75 41.5 
Q 54.890625 34.8125 54.890625 23.390625 
Q 54.890625 11.625 47.5625 5.09375 
Q 40.234375 -1.421875 26.90625 -1.421875 
Q 22.3125 -1.421875 17.546875 -0.640625 
Q 12.796875 0.140625 7.71875 1.703125 
L 7.71875 11.625 
Q 12.109375 9.234375 16.796875 8.0625 
Q 21.484375 6.890625 26.703125 6.890625 
Q 35.15625 6.890625 40.078125 11.328125 
Q 45.015625 15.765625 45.015625 23.390625 
Q 45.015625 31 40.078125 35.4375 
Q 35.15625 39.890625 26.703125 39.890625 
Q 22.75 39.890625 18.8125 39.015625 
Q 14.890625 38.140625 10.796875 36.28125 
z
" id="DejaVuSans-53"/>
       </defs>
       <use xlink:href="#DejaVuSans-50"/>
       <use x="63.623047" xlink:href="#DejaVuSans-53"/>
      </g>
     </g>
    </g>
    <g id="ytick_3">
     <g id="line2d_8">
      <path clip-path="url(#p37fc2bf00c)" d="M 337.263438 213.48 
C 337.263438 202.772265 335.154247 192.16865 331.056575 182.275993 
C 326.958902 172.383336 320.952436 163.394025 313.380924 155.822513 
C 305.809413 148.251001 296.820101 142.244536 286.927445 138.146863 
C 277.034788 134.04919 266.431172 131.94 255.723437 131.94 
C 245.015703 131.94 234.412087 134.04919 224.51943 138.146863 
C 214.626774 142.244536 205.637462 148.251001 198.065951 155.822513 
C 190.494439 163.394025 184.487973 172.383336 180.3903 182.275993 
C 176.292628 192.16865 174.183437 202.772265 174.183437 213.48 
C 174.183437 224.187735 176.292628 234.79135 180.3903 244.684007 
C 184.487973 254.576664 190.494439 263.565975 198.065951 271.137487 
C 205.637462 278.708999 214.626774 284.715464 224.51943 288.813137 
C 234.412087 292.91081 245.015703 295.02 255.723437 295.02 
C 266.431172 295.02 277.034788 292.91081 286.927445 288.813137 
C 296.820101 284.715464 305.809413 278.708999 313.380924 271.137487 
C 320.952436 263.565975 326.958902 254.576664 331.056575 244.684007 
C 335.154247 234.79135 337.263438 224.187735 337.263438 213.48 
" style="fill:none;stroke:#b0b0b0;stroke-linecap:square;stroke-width:0.8;"/>
     </g>
     <g id="text_8">
      <!-- 50 -->
      <g style="fill:#808080;" transform="translate(331.056575 180.196305)scale(0.1 -0.1)">
       <use xlink:href="#DejaVuSans-53"/>
       <use x="63.623047" xlink:href="#DejaVuSans-48"/>
      </g>
     </g>
    </g>
    <g id="ytick_4">
     <g id="line2d_9">
      <path clip-path="url(#p37fc2bf00c)" d="M 378.033437 213.48 
C 378.033437 197.418398 374.869652 181.512975 368.723143 166.673989 
C 362.576634 151.835004 353.566936 138.351037 342.209668 126.99377 
C 330.8524 115.636502 317.368433 106.626803 302.529448 100.480294 
C 287.690463 94.333785 271.78504 91.17 255.723437 91.17 
C 239.661835 91.17 223.756412 94.333785 208.917427 100.480294 
C 194.078442 106.626803 180.594475 115.636502 169.237207 126.99377 
C 157.879939 138.351037 148.870241 151.835004 142.723732 166.673989 
C 136.577223 181.512975 133.413437 197.418398 133.413437 213.48 
C 133.413437 229.541602 136.577223 245.447025 142.723732 260.286011 
C 148.870241 275.124996 157.879939 288.608963 169.237207 299.96623 
C 180.594475 311.323498 194.078442 320.333197 208.917427 326.479706 
C 223.756412 332.626215 239.661835 335.79 255.723437 335.79 
C 271.78504 335.79 287.690463 332.626215 302.529448 326.479706 
C 317.368433 320.333197 330.8524 311.323498 342.209668 299.96623 
C 353.566936 288.608963 362.576634 275.124996 368.723143 260.286011 
C 374.869652 245.447025 378.033437 229.541602 378.033437 213.48 
" style="fill:none;stroke:#b0b0b0;stroke-linecap:square;stroke-width:0.8;"/>
     </g>
     <g id="text_9">
      <!-- 75 -->
      <g style="fill:#808080;" transform="translate(368.723143 164.594302)scale(0.1 -0.1)">
       <defs>
        <path d="M 8.203125 72.90625 
L 55.078125 72.90625 
L 55.078125 68.703125 
L 28.609375 0 
L 18.3125 0 
L 43.21875 64.59375 
L 8.203125 64.59375 
z
" id="DejaVuSans-55"/>
       </defs>
       <use xlink:href="#DejaVuSans-55"/>
       <use x="63.623047" xlink:href="#DejaVuSans-53"/>
      </g>
     </g>
    </g>
    <g id="ytick_5">
     <g id="line2d_10">
      <path clip-path="url(#p37fc2bf00c)" d="M 418.803437 213.48 
C 418.803437 192.064531 414.585057 170.8573 406.389712 151.071986 
C 398.194366 131.286672 386.181435 113.30805 371.038411 98.165026 
C 355.895388 83.022003 337.916765 71.009071 318.131452 62.813726 
C 298.346138 54.618381 277.138907 50.4 255.723437 50.4 
C 234.307968 50.4 213.100737 54.618381 193.315423 62.813726 
C 173.53011 71.009071 155.551487 83.022003 140.408464 98.165026 
C 125.26544 113.30805 113.252509 131.286672 105.057163 151.071986 
C 96.861818 170.8573 92.643438 192.064531 92.643438 213.48 
C 92.643438 234.895469 96.861818 256.1027 105.057163 275.888014 
C 113.252509 295.673328 125.26544 313.65195 140.408464 328.794974 
C 155.551487 343.937997 173.53011 355.950929 193.315423 364.146274 
C 213.100737 372.341619 234.307968 376.56 255.723437 376.56 
C 277.138907 376.56 298.346138 372.341619 318.131452 364.146274 
C 337.916765 355.950929 355.895388 343.937997 371.038411 328.794974 
C 386.181435 313.65195 398.194366 295.673328 406.389712 275.888014 
C 414.585057 256.1027 418.803437 234.895469 418.803437 213.48 
" style="fill:none;stroke:#b0b0b0;stroke-linecap:square;stroke-width:0.8;"/>
     </g>
     <g id="text_10">
      <!-- 100 -->
      <g style="fill:#808080;" transform="translate(406.389712 148.992298)scale(0.1 -0.1)">
       <defs>
        <path d="M 12.40625 8.296875 
L 28.515625 8.296875 
L 28.515625 63.921875 
L 10.984375 60.40625 
L 10.984375 69.390625 
L 28.421875 72.90625 
L 38.28125 72.90625 
L 38.28125 8.296875 
L 54.390625 8.296875 
L 54.390625 0 
L 12.40625 0 
z
" id="DejaVuSans-49"/>
       </defs>
       <use xlink:href="#DejaVuSans-49"/>
       <use x="63.623047" xlink:href="#DejaVuSans-48"/>
       <use x="127.246094" xlink:href="#DejaVuSans-48"/>
      </g>
     </g>
    </g>
   </g>
   <g id="line2d_11">
    <path clip-path="url(#p37fc2bf00c)" d="M 418.802158 213.48 
L 286.759866 117.959694 
L 252.665782 211.258484 
L 252.027069 216.165569 
L 271.36401 261.616734 
L 418.802158 213.48 
" style="fill:none;stroke:#800080;stroke-linecap:square;"/>
   </g>
   <g id="line2d_12">
    <path clip-path="url(#p37fc2bf00c)" d="M 418.794384 213.48 
L 288.081925 113.890817 
L 236.479166 199.498218 
L 248.044173 219.059313 
L 270.554452 259.12517 
L 418.794384 213.48 
" style="fill:none;stroke:#0000ff;stroke-linecap:square;"/>
   </g>
   <g id="line2d_13">
    <path clip-path="url(#p37fc2bf00c)" d="M 418.798988 213.48 
L 286.495057 118.774692 
L 247.209803 207.294483 
L 254.370104 214.463254 
L 265.153312 242.50217 
L 418.798988 213.48 
" style="fill:none;stroke:#008000;stroke-linecap:square;"/>
   </g>
   <g id="line2d_14">
    <path clip-path="url(#p37fc2bf00c)" d="M 418.802874 213.48 
L 288.999026 111.068268 
L 244.938441 205.644241 
L 252.302337 215.965575 
L 260.405136 227.888788 
L 418.802874 213.48 
" style="fill:none;stroke:#ff0000;stroke-linecap:square;"/>
   </g>
   <g id="line2d_15">
    <path clip-path="url(#p37fc2bf00c)" d="M 418.798448 213.48 
L 289.042813 110.933507 
L 246.467331 206.755045 
L 252.117901 216.099576 
L 271.340701 261.544994 
L 418.798448 213.48 
" style="fill:none;stroke:#ffa500;stroke-linecap:square;"/>
   </g>
   <g id="patch_8">
    <path d="M 418.803437 213.48 
C 418.803437 192.064531 414.585057 170.8573 406.389712 151.071986 
C 398.194366 131.286672 386.181435 113.30805 371.038411 98.165026 
C 355.895388 83.022003 337.916765 71.009071 318.131452 62.813726 
C 298.346138 54.618381 277.138907 50.4 255.723437 50.4 
C 234.307968 50.4 213.100737 54.618381 193.315423 62.813726 
C 173.53011 71.009071 155.551487 83.022003 140.408464 98.165026 
C 125.26544 113.30805 113.252509 131.286672 105.057163 151.071986 
C 96.861818 170.8573 92.643438 192.064531 92.643438 213.48 
C 92.643438 234.895469 96.861818 256.1027 105.057163 275.888014 
C 113.252509 295.673328 125.26544 313.65195 140.408464 328.794974 
C 155.551487 343.937997 173.53011 355.950929 193.315423 364.146274 
C 213.100737 372.341619 234.307968 376.56 255.723437 376.56 
C 277.138907 376.56 298.346138 372.341619 318.131452 364.146274 
C 337.916765 355.950929 355.895388 343.937997 371.038411 328.794974 
C 386.181435 313.65195 398.194366 295.673328 406.389712 275.888014 
C 414.585057 256.1027 418.803437 234.895469 418.803437 213.48 
" style="fill:none;stroke:#000000;stroke-linecap:square;stroke-linejoin:miter;stroke-width:0.8;"/>
   </g>
   <g id="legend_1">
    <g id="patch_9">
     <path d="M 327.553437 371.56 
L 411.803437 371.56 
Q 413.803437 371.56 413.803437 369.56 
L 413.803437 297.169375 
Q 413.803437 295.169375 411.803437 295.169375 
L 327.553437 295.169375 
Q 325.553437 295.169375 325.553437 297.169375 
L 325.553437 369.56 
Q 325.553437 371.56 327.553437 371.56 
z
" style="fill:#ffffff;opacity:0.8;stroke:#cccccc;stroke-linejoin:miter;"/>
    </g>
    <g id="line2d_16">
     <path d="M 329.553437 303.267812 
L 349.553437 303.267812 
" style="fill:none;stroke:#800080;stroke-linecap:square;"/>
    </g>
    <g id="line2d_17"/>
    <g id="text_11">
     <!-- bentham -->
     <g transform="translate(357.553437 306.767812)scale(0.1 -0.1)">
      <defs>
       <path d="M 54.890625 33.015625 
L 54.890625 0 
L 45.90625 0 
L 45.90625 32.71875 
Q 45.90625 40.484375 42.875 44.328125 
Q 39.84375 48.1875 33.796875 48.1875 
Q 26.515625 48.1875 22.3125 43.546875 
Q 18.109375 38.921875 18.109375 30.90625 
L 18.109375 0 
L 9.078125 0 
L 9.078125 75.984375 
L 18.109375 75.984375 
L 18.109375 46.1875 
Q 21.34375 51.125 25.703125 53.5625 
Q 30.078125 56 35.796875 56 
Q 45.21875 56 50.046875 50.171875 
Q 54.890625 44.34375 54.890625 33.015625 
z
" id="DejaVuSans-104"/>
      </defs>
      <use xlink:href="#DejaVuSans-98"/>
      <use x="63.476562" xlink:href="#DejaVuSans-101"/>
      <use x="125" xlink:href="#DejaVuSans-110"/>
      <use x="188.378906" xlink:href="#DejaVuSans-116"/>
      <use x="227.587891" xlink:href="#DejaVuSans-104"/>
      <use x="290.966797" xlink:href="#DejaVuSans-97"/>
      <use x="352.246094" xlink:href="#DejaVuSans-109"/>
     </g>
    </g>
    <g id="line2d_18">
     <path d="M 329.553437 317.945937 
L 349.553437 317.945937 
" style="fill:none;stroke:#0000ff;stroke-linecap:square;"/>
    </g>
    <g id="line2d_19"/>
    <g id="text_12">
     <!-- hutcheson -->
     <g transform="translate(357.553437 321.445937)scale(0.1 -0.1)">
      <use xlink:href="#DejaVuSans-104"/>
      <use x="63.378906" xlink:href="#DejaVuSans-117"/>
      <use x="126.757812" xlink:href="#DejaVuSans-116"/>
      <use x="165.966797" xlink:href="#DejaVuSans-99"/>
      <use x="220.947266" xlink:href="#DejaVuSans-104"/>
      <use x="284.326172" xlink:href="#DejaVuSans-101"/>
      <use x="345.849609" xlink:href="#DejaVuSans-115"/>
      <use x="397.949219" xlink:href="#DejaVuSans-111"/>
      <use x="459.130859" xlink:href="#DejaVuSans-110"/>
     </g>
    </g>
    <g id="line2d_20">
     <path d="M 329.553437 332.624062 
L 349.553437 332.624062 
" style="fill:none;stroke:#008000;stroke-linecap:square;"/>
    </g>
    <g id="line2d_21"/>
    <g id="text_13">
     <!-- mill -->
     <g transform="translate(357.553437 336.124062)scale(0.1 -0.1)">
      <use xlink:href="#DejaVuSans-109"/>
      <use x="97.412109" xlink:href="#DejaVuSans-105"/>
      <use x="125.195312" xlink:href="#DejaVuSans-108"/>
      <use x="152.978516" xlink:href="#DejaVuSans-108"/>
     </g>
    </g>
    <g id="line2d_22">
     <path d="M 329.553437 347.302187 
L 349.553437 347.302187 
" style="fill:none;stroke:#ff0000;stroke-linecap:square;"/>
    </g>
    <g id="line2d_23"/>
    <g id="text_14">
     <!-- moore -->
     <g transform="translate(357.553437 350.802187)scale(0.1 -0.1)">
      <use xlink:href="#DejaVuSans-109"/>
      <use x="97.412109" xlink:href="#DejaVuSans-111"/>
      <use x="158.59375" xlink:href="#DejaVuSans-111"/>
      <use x="219.775391" xlink:href="#DejaVuSans-114"/>
      <use x="258.638672" xlink:href="#DejaVuSans-101"/>
     </g>
    </g>
    <g id="line2d_24">
     <path d="M 329.553437 361.980312 
L 349.553437 361.980312 
" style="fill:none;stroke:#ffa500;stroke-linecap:square;"/>
    </g>
    <g id="line2d_25"/>
    <g id="text_15">
     <!-- sidgwick -->
     <g transform="translate(357.553437 365.480312)scale(0.1 -0.1)">
      <defs>
       <path d="M 45.40625 46.390625 
L 45.40625 75.984375 
L 54.390625 75.984375 
L 54.390625 0 
L 45.40625 0 
L 45.40625 8.203125 
Q 42.578125 3.328125 38.25 0.953125 
Q 33.9375 -1.421875 27.875 -1.421875 
Q 17.96875 -1.421875 11.734375 6.484375 
Q 5.515625 14.40625 5.515625 27.296875 
Q 5.515625 40.1875 11.734375 48.09375 
Q 17.96875 56 27.875 56 
Q 33.9375 56 38.25 53.625 
Q 42.578125 51.265625 45.40625 46.390625 
z
M 14.796875 27.296875 
Q 14.796875 17.390625 18.875 11.75 
Q 22.953125 6.109375 30.078125 6.109375 
Q 37.203125 6.109375 41.296875 11.75 
Q 45.40625 17.390625 45.40625 27.296875 
Q 45.40625 37.203125 41.296875 42.84375 
Q 37.203125 48.484375 30.078125 48.484375 
Q 22.953125 48.484375 18.875 42.84375 
Q 14.796875 37.203125 14.796875 27.296875 
z
" id="DejaVuSans-100"/>
       <path d="M 4.203125 54.6875 
L 13.1875 54.6875 
L 24.421875 12.015625 
L 35.59375 54.6875 
L 46.1875 54.6875 
L 57.421875 12.015625 
L 68.609375 54.6875 
L 77.59375 54.6875 
L 63.28125 0 
L 52.6875 0 
L 40.921875 44.828125 
L 29.109375 0 
L 18.5 0 
z
" id="DejaVuSans-119"/>
       <path d="M 9.078125 75.984375 
L 18.109375 75.984375 
L 18.109375 31.109375 
L 44.921875 54.6875 
L 56.390625 54.6875 
L 27.390625 29.109375 
L 57.625 0 
L 45.90625 0 
L 18.109375 26.703125 
L 18.109375 0 
L 9.078125 0 
z
" id="DejaVuSans-107"/>
      </defs>
      <use xlink:href="#DejaVuSans-115"/>
      <use x="52.099609" xlink:href="#DejaVuSans-105"/>
      <use x="79.882812" xlink:href="#DejaVuSans-100"/>
      <use x="143.359375" xlink:href="#DejaVuSans-103"/>
      <use x="206.835938" xlink:href="#DejaVuSans-119"/>
      <use x="288.623047" xlink:href="#DejaVuSans-105"/>
      <use x="316.40625" xlink:href="#DejaVuSans-99"/>
      <use x="371.386719" xlink:href="#DejaVuSans-107"/>
     </g>
    </g>
   </g>
  </g>
  <g id="text_16">
   <!-- Stacked Utilitarian Ethicists Percentile Scores -->
   <g transform="translate(7.2 22.396875)scale(0.2 -0.2)">
    <defs>
     <path d="M 53.515625 70.515625 
L 53.515625 60.890625 
Q 47.90625 63.578125 42.921875 64.890625 
Q 37.9375 66.21875 33.296875 66.21875 
Q 25.25 66.21875 20.875 63.09375 
Q 16.5 59.96875 16.5 54.203125 
Q 16.5 49.359375 19.40625 46.890625 
Q 22.3125 44.4375 30.421875 42.921875 
L 36.375 41.703125 
Q 47.40625 39.59375 52.65625 34.296875 
Q 57.90625 29 57.90625 20.125 
Q 57.90625 9.515625 50.796875 4.046875 
Q 43.703125 -1.421875 29.984375 -1.421875 
Q 24.8125 -1.421875 18.96875 -0.25 
Q 13.140625 0.921875 6.890625 3.21875 
L 6.890625 13.375 
Q 12.890625 10.015625 18.65625 8.296875 
Q 24.421875 6.59375 29.984375 6.59375 
Q 38.421875 6.59375 43.015625 9.90625 
Q 47.609375 13.234375 47.609375 19.390625 
Q 47.609375 24.75 44.3125 27.78125 
Q 41.015625 30.8125 33.5 32.328125 
L 27.484375 33.5 
Q 16.453125 35.6875 11.515625 40.375 
Q 6.59375 45.0625 6.59375 53.421875 
Q 6.59375 63.09375 13.40625 68.65625 
Q 20.21875 74.21875 32.171875 74.21875 
Q 37.3125 74.21875 42.625 73.28125 
Q 47.953125 72.359375 53.515625 70.515625 
z
" id="DejaVuSans-83"/>
     <path id="DejaVuSans-32"/>
     <path d="M 8.6875 72.90625 
L 18.609375 72.90625 
L 18.609375 28.609375 
Q 18.609375 16.890625 22.84375 11.734375 
Q 27.09375 6.59375 36.625 6.59375 
Q 46.09375 6.59375 50.34375 11.734375 
Q 54.59375 16.890625 54.59375 28.609375 
L 54.59375 72.90625 
L 64.5 72.90625 
L 64.5 27.390625 
Q 64.5 13.140625 57.4375 5.859375 
Q 50.390625 -1.421875 36.625 -1.421875 
Q 22.796875 -1.421875 15.734375 5.859375 
Q 8.6875 13.140625 8.6875 27.390625 
z
" id="DejaVuSans-85"/>
     <path d="M 9.8125 72.90625 
L 55.90625 72.90625 
L 55.90625 64.59375 
L 19.671875 64.59375 
L 19.671875 43.015625 
L 54.390625 43.015625 
L 54.390625 34.71875 
L 19.671875 34.71875 
L 19.671875 8.296875 
L 56.78125 8.296875 
L 56.78125 0 
L 9.8125 0 
z
" id="DejaVuSans-69"/>
     <path d="M 19.671875 64.796875 
L 19.671875 37.40625 
L 32.078125 37.40625 
Q 38.96875 37.40625 42.71875 40.96875 
Q 46.484375 44.53125 46.484375 51.125 
Q 46.484375 57.671875 42.71875 61.234375 
Q 38.96875 64.796875 32.078125 64.796875 
z
M 9.8125 72.90625 
L 32.078125 72.90625 
Q 44.34375 72.90625 50.609375 67.359375 
Q 56.890625 61.8125 56.890625 51.125 
Q 56.890625 40.328125 50.609375 34.8125 
Q 44.34375 29.296875 32.078125 29.296875 
L 19.671875 29.296875 
L 19.671875 0 
L 9.8125 0 
z
" id="DejaVuSans-80"/>
    </defs>
    <use xlink:href="#DejaVuSans-83"/>
    <use x="63.476562" xlink:href="#DejaVuSans-116"/>
    <use x="102.685547" xlink:href="#DejaVuSans-97"/>
    <use x="163.964844" xlink:href="#DejaVuSans-99"/>
    <use x="218.945312" xlink:href="#DejaVuSans-107"/>
    <use x="273.230469" xlink:href="#DejaVuSans-101"/>
    <use x="334.753906" xlink:href="#DejaVuSans-100"/>
    <use x="398.230469" xlink:href="#DejaVuSans-32"/>
    <use x="430.017578" xlink:href="#DejaVuSans-85"/>
    <use x="503.210938" xlink:href="#DejaVuSans-116"/>
    <use x="542.419922" xlink:href="#DejaVuSans-105"/>
    <use x="570.203125" xlink:href="#DejaVuSans-108"/>
    <use x="597.986328" xlink:href="#DejaVuSans-105"/>
    <use x="625.769531" xlink:href="#DejaVuSans-116"/>
    <use x="664.978516" xlink:href="#DejaVuSans-97"/>
    <use x="726.257812" xlink:href="#DejaVuSans-114"/>
    <use x="767.371094" xlink:href="#DejaVuSans-105"/>
    <use x="795.154297" xlink:href="#DejaVuSans-97"/>
    <use x="856.433594" xlink:href="#DejaVuSans-110"/>
    <use x="919.8125" xlink:href="#DejaVuSans-32"/>
    <use x="951.599609" xlink:href="#DejaVuSans-69"/>
    <use x="1014.783203" xlink:href="#DejaVuSans-116"/>
    <use x="1053.992188" xlink:href="#DejaVuSans-104"/>
    <use x="1117.371094" xlink:href="#DejaVuSans-105"/>
    <use x="1145.154297" xlink:href="#DejaVuSans-99"/>
    <use x="1200.134766" xlink:href="#DejaVuSans-105"/>
    <use x="1227.917969" xlink:href="#DejaVuSans-115"/>
    <use x="1280.017578" xlink:href="#DejaVuSans-116"/>
    <use x="1319.226562" xlink:href="#DejaVuSans-115"/>
    <use x="1371.326172" xlink:href="#DejaVuSans-32"/>
    <use x="1403.113281" xlink:href="#DejaVuSans-80"/>
    <use x="1459.791016" xlink:href="#DejaVuSans-101"/>
    <use x="1521.314453" xlink:href="#DejaVuSans-114"/>
    <use x="1560.177734" xlink:href="#DejaVuSans-99"/>
    <use x="1615.158203" xlink:href="#DejaVuSans-101"/>
    <use x="1676.681641" xlink:href="#DejaVuSans-110"/>
    <use x="1740.060547" xlink:href="#DejaVuSans-116"/>
    <use x="1779.269531" xlink:href="#DejaVuSans-105"/>
    <use x="1807.052734" xlink:href="#DejaVuSans-108"/>
    <use x="1834.835938" xlink:href="#DejaVuSans-101"/>
    <use x="1896.359375" xlink:href="#DejaVuSans-32"/>
    <use x="1928.146484" xlink:href="#DejaVuSans-83"/>
    <use x="1991.623047" xlink:href="#DejaVuSans-99"/>
    <use x="2046.603516" xlink:href="#DejaVuSans-111"/>
    <use x="2107.785156" xlink:href="#DejaVuSans-114"/>
    <use x="2146.648438" xlink:href="#DejaVuSans-101"/>
    <use x="2208.171875" xlink:href="#DejaVuSans-115"/>
   </g>
  </g>
 </g>
 <defs>
  <clipPath id="p37fc2bf00c">
   <path d="M 418.803437 213.48 
C 418.803437 192.064531 414.585057 170.8573 406.389712 151.071986 
C 398.194366 131.286672 386.181435 113.30805 371.038411 98.165026 
C 355.895388 83.022003 337.916765 71.009071 318.131452 62.813726 
C 298.346138 54.618381 277.138907 50.4 255.723437 50.4 
C 234.307968 50.4 213.100737 54.618381 193.315423 62.813726 
C 173.53011 71.009071 155.551487 83.022003 140.408464 98.165026 
C 125.26544 113.30805 113.252509 131.286672 105.057163 151.071986 
C 96.861818 170.8573 92.643438 192.064531 92.643438 213.48 
C 92.643438 234.895469 96.861818 256.1027 105.057163 275.888014 
C 113.252509 295.673328 125.26544 313.65195 140.408464 328.794974 
C 155.551487 343.937997 173.53011 355.950929 193.315423 364.146274 
C 213.100737 372.341619 234.307968 376.56 255.723437 376.56 
C 277.138907 376.56 298.346138 372.341619 318.131452 364.146274 
C 337.916765 355.950929 355.895388 343.937997 371.038411 328.794974 
C 386.181435 313.65195 398.194366 295.673328 406.389712 275.888014 
C 414.585057 256.1027 418.803437 234.895469 418.803437 213.48 
M 255.723437 213.48 
C 255.723437 213.48 255.723437 213.48 255.723437 213.48 
C 255.723437 213.48 255.723437 213.48 255.723437 213.48 
C 255.723437 213.48 255.723437 213.48 255.723437 213.48 
C 255.723437 213.48 255.723437 213.48 255.723437 213.48 
C 255.723437 213.48 255.723437 213.48 255.723437 213.48 
C 255.723437 213.48 255.723437 213.48 255.723437 213.48 
C 255.723437 213.48 255.723437 213.48 255.723437 213.48 
C 255.723437 213.48 255.723437 213.48 255.723437 213.48 
C 255.723437 213.48 255.723437 213.48 255.723437 213.48 
C 255.723437 213.48 255.723437 213.48 255.723437 213.48 
C 255.723437 213.48 255.723437 213.48 255.723437 213.48 
C 255.723437 213.48 255.723437 213.48 255.723437 213.48 
C 255.723437 213.48 255.723437 213.48 255.723437 213.48 
C 255.723437 213.48 255.723437 213.48 255.723437 213.48 
C 255.723437 213.48 255.723437 213.48 255.723437 213.48 
C 255.723437 213.48 255.723437 213.48 255.723437 213.48 
M 418.803437 213.48 
z
"/>
  </clipPath>
 </defs>
</svg>
